<svg xmlns="http://www.w3.org/2000/svg" xmlns:xlink="http://www.w3.org/1999/xlink" width="600" zoomAndPan="magnify" viewBox="0 0 450 116.249996" height="155" preserveAspectRatio="xMidYMid meet" version="1.2"><defs><clipPath id="e8a0175a49"><path d="M 68.253906 7.613281 L 75.429688 7.613281 L 75.429688 14.789062 L 68.253906 14.789062 Z M 68.253906 7.613281 "/></clipPath><clipPath id="31a0fa1ef4"><path d="M 71.84375 7.613281 C 69.859375 7.613281 68.253906 9.21875 68.253906 11.199219 C 68.253906 13.183594 69.859375 14.789062 71.84375 14.789062 C 73.824219 14.789062 75.429688 13.183594 75.429688 11.199219 C 75.429688 9.21875 73.824219 7.613281 71.84375 7.613281 Z M 71.84375 7.613281 "/></clipPath><clipPath id="a7585d9f8a"><path d="M 68.253906 7.613281 L 75.429688 7.613281 L 75.429688 14.785156 L 68.253906 14.785156 Z M 68.253906 7.613281 "/></clipPath><clipPath id="6e5b3955fc"><path d="M 71.839844 7.613281 C 69.859375 7.613281 68.253906 9.21875 68.253906 11.199219 C 68.253906 13.179688 69.859375 14.785156 71.839844 14.785156 C 73.824219 14.785156 75.429688 13.179688 75.429688 11.199219 C 75.429688 9.21875 73.824219 7.613281 71.839844 7.613281 Z M 71.839844 7.613281 "/></clipPath><clipPath id="95f744082a"><path d="M 84.808594 17.519531 L 91.988281 17.519531 L 91.988281 24.695312 L 84.808594 24.695312 Z M 84.808594 17.519531 "/></clipPath><clipPath id="e60d5f42f6"><path d="M 88.398438 17.519531 C 86.414062 17.519531 84.808594 19.125 84.808594 21.105469 C 84.808594 23.089844 86.414062 24.695312 88.398438 24.695312 C 90.378906 24.695312 91.988281 23.089844 91.988281 21.105469 C 91.988281 19.125 90.378906 17.519531 88.398438 17.519531 Z M 88.398438 17.519531 "/></clipPath><clipPath id="baeec4b1f2"><path d="M 84.808594 17.519531 L 91.984375 17.519531 L 91.984375 24.691406 L 84.808594 24.691406 Z M 84.808594 17.519531 "/></clipPath><clipPath id="f3c9b70a7c"><path d="M 88.398438 17.519531 C 86.414062 17.519531 84.808594 19.125 84.808594 21.105469 C 84.808594 23.085938 86.414062 24.691406 88.398438 24.691406 C 90.378906 24.691406 91.984375 23.085938 91.984375 21.105469 C 91.984375 19.125 90.378906 17.519531 88.398438 17.519531 Z M 88.398438 17.519531 "/></clipPath><clipPath id="08971aabd3"><path d="M 76.964844 25.476562 L 84.140625 25.476562 L 84.140625 32.65625 L 76.964844 32.65625 Z M 76.964844 25.476562 "/></clipPath><clipPath id="f8a12be50f"><path d="M 80.554688 25.476562 C 78.570312 25.476562 76.964844 27.082031 76.964844 29.066406 C 76.964844 31.046875 78.570312 32.65625 80.554688 32.65625 C 82.535156 32.65625 84.140625 31.046875 84.140625 29.066406 C 84.140625 27.082031 82.535156 25.476562 80.554688 25.476562 Z M 80.554688 25.476562 "/></clipPath><clipPath id="c22f6dbf1b"><path d="M 76.964844 25.476562 L 84.140625 25.476562 L 84.140625 32.652344 L 76.964844 32.652344 Z M 76.964844 25.476562 "/></clipPath><clipPath id="0733d4b22a"><path d="M 80.550781 25.476562 C 78.570312 25.476562 76.964844 27.082031 76.964844 29.0625 C 76.964844 31.046875 78.570312 32.652344 80.550781 32.652344 C 82.53125 32.652344 84.140625 31.046875 84.140625 29.0625 C 84.140625 27.082031 82.53125 25.476562 80.550781 25.476562 Z M 80.550781 25.476562 "/></clipPath><clipPath id="069c3ace9e"><path d="M 60.261719 17.519531 L 67.441406 17.519531 L 67.441406 24.695312 L 60.261719 24.695312 Z M 60.261719 17.519531 "/></clipPath><clipPath id="d3772c57e6"><path d="M 63.851562 17.519531 C 61.871094 17.519531 60.261719 19.125 60.261719 21.105469 C 60.261719 23.089844 61.871094 24.695312 63.851562 24.695312 C 65.835938 24.695312 67.441406 23.089844 67.441406 21.105469 C 67.441406 19.125 65.835938 17.519531 63.851562 17.519531 Z M 63.851562 17.519531 "/></clipPath><clipPath id="99fe1b270d"><path d="M 60.261719 17.519531 L 67.4375 17.519531 L 67.4375 24.691406 L 60.261719 24.691406 Z M 60.261719 17.519531 "/></clipPath><clipPath id="9df15cd043"><path d="M 63.851562 17.519531 C 61.871094 17.519531 60.261719 19.125 60.261719 21.105469 C 60.261719 23.085938 61.871094 24.691406 63.851562 24.691406 C 65.832031 24.691406 67.4375 23.085938 67.4375 21.105469 C 67.4375 19.125 65.832031 17.519531 63.851562 17.519531 Z M 63.851562 17.519531 "/></clipPath><clipPath id="c235663e24"><path d="M 68.253906 34.46875 L 75.429688 34.46875 L 75.429688 41.644531 L 68.253906 41.644531 Z M 68.253906 34.46875 "/></clipPath><clipPath id="75df673948"><path d="M 71.84375 34.46875 C 69.859375 34.46875 68.253906 36.074219 68.253906 38.058594 C 68.253906 40.039062 69.859375 41.644531 71.84375 41.644531 C 73.824219 41.644531 75.429688 40.039062 75.429688 38.058594 C 75.429688 36.074219 73.824219 34.46875 71.84375 34.46875 Z M 71.84375 34.46875 "/></clipPath><clipPath id="d0b9eba090"><path d="M 68.253906 34.46875 L 75.429688 34.46875 L 75.429688 41.644531 L 68.253906 41.644531 Z M 68.253906 34.46875 "/></clipPath><clipPath id="41cd5d1f5f"><path d="M 71.839844 34.46875 C 69.859375 34.46875 68.253906 36.074219 68.253906 38.054688 C 68.253906 40.035156 69.859375 41.644531 71.839844 41.644531 C 73.824219 41.644531 75.429688 40.035156 75.429688 38.054688 C 75.429688 36.074219 73.824219 34.46875 71.839844 34.46875 Z M 71.839844 34.46875 "/></clipPath><clipPath id="1098f86490"><path d="M 53.085938 25.476562 L 60.261719 25.476562 L 60.261719 32.65625 L 53.085938 32.65625 Z M 53.085938 25.476562 "/></clipPath><clipPath id="754cbb6a0b"><path d="M 56.675781 25.476562 C 54.691406 25.476562 53.085938 27.082031 53.085938 29.066406 C 53.085938 31.046875 54.691406 32.65625 56.675781 32.65625 C 58.65625 32.65625 60.261719 31.046875 60.261719 29.066406 C 60.261719 27.082031 58.65625 25.476562 56.675781 25.476562 Z M 56.675781 25.476562 "/></clipPath><clipPath id="9c5a5cbc17"><path d="M 53.085938 25.476562 L 60.261719 25.476562 L 60.261719 32.652344 L 53.085938 32.652344 Z M 53.085938 25.476562 "/></clipPath><clipPath id="ed3e7ae7cc"><path d="M 56.671875 25.476562 C 54.691406 25.476562 53.085938 27.082031 53.085938 29.0625 C 53.085938 31.046875 54.691406 32.652344 56.671875 32.652344 C 58.652344 32.652344 60.261719 31.046875 60.261719 29.0625 C 60.261719 27.082031 58.652344 25.476562 56.671875 25.476562 Z M 56.671875 25.476562 "/></clipPath><clipPath id="34e6519ad2"><path d="M 48.667969 4.023438 L 55.84375 4.023438 L 55.84375 11.199219 L 48.667969 11.199219 Z M 48.667969 4.023438 "/></clipPath><clipPath id="bbd43695c4"><path d="M 52.257812 4.023438 C 50.273438 4.023438 48.667969 5.628906 48.667969 7.613281 C 48.667969 9.59375 50.273438 11.199219 52.257812 11.199219 C 54.238281 11.199219 55.84375 9.59375 55.84375 7.613281 C 55.84375 5.628906 54.238281 4.023438 52.257812 4.023438 Z M 52.257812 4.023438 "/></clipPath><clipPath id="d625cfe96c"><path d="M 48.667969 4.023438 L 55.84375 4.023438 L 55.84375 11.199219 L 48.667969 11.199219 Z M 48.667969 4.023438 "/></clipPath><clipPath id="1e5d6e575a"><path d="M 52.253906 4.023438 C 50.273438 4.023438 48.667969 5.628906 48.667969 7.609375 C 48.667969 9.589844 50.273438 11.199219 52.253906 11.199219 C 54.234375 11.199219 55.84375 9.589844 55.84375 7.609375 C 55.84375 5.628906 54.234375 4.023438 52.253906 4.023438 Z M 52.253906 4.023438 "/></clipPath><clipPath id="ba1e5973ae"><path d="M 40.125 17.519531 L 47.300781 17.519531 L 47.300781 24.695312 L 40.125 24.695312 Z M 40.125 17.519531 "/></clipPath><clipPath id="3350d4a404"><path d="M 43.714844 17.519531 C 41.730469 17.519531 40.125 19.125 40.125 21.105469 C 40.125 23.089844 41.730469 24.695312 43.714844 24.695312 C 45.695312 24.695312 47.300781 23.089844 47.300781 21.105469 C 47.300781 19.125 45.695312 17.519531 43.714844 17.519531 Z M 43.714844 17.519531 "/></clipPath><clipPath id="36fc3221ae"><path d="M 40.125 17.519531 L 47.300781 17.519531 L 47.300781 24.691406 L 40.125 24.691406 Z M 40.125 17.519531 "/></clipPath><clipPath id="09f7443c20"><path d="M 43.710938 17.519531 C 41.730469 17.519531 40.125 19.125 40.125 21.105469 C 40.125 23.085938 41.730469 24.691406 43.710938 24.691406 C 45.695312 24.691406 47.300781 23.085938 47.300781 21.105469 C 47.300781 19.125 45.695312 17.519531 43.710938 17.519531 Z M 43.710938 17.519531 "/></clipPath><clipPath id="7f5b15bc2c"><path d="M 31.34375 38.058594 L 38.519531 38.058594 L 38.519531 45.234375 L 31.34375 45.234375 Z M 31.34375 38.058594 "/></clipPath><clipPath id="0a3c8d635b"><path d="M 34.929688 38.058594 C 32.949219 38.058594 31.34375 39.664062 31.34375 41.644531 C 31.34375 43.628906 32.949219 45.234375 34.929688 45.234375 C 36.914062 45.234375 38.519531 43.628906 38.519531 41.644531 C 38.519531 39.664062 36.914062 38.058594 34.929688 38.058594 Z M 34.929688 38.058594 "/></clipPath><clipPath id="6476f998ba"><path d="M 26.816406 10.339844 L 33.992188 10.339844 L 33.992188 17.519531 L 26.816406 17.519531 Z M 26.816406 10.339844 "/></clipPath><clipPath id="c0c02e4786"><path d="M 30.40625 10.339844 C 28.421875 10.339844 26.816406 11.945312 26.816406 13.929688 C 26.816406 15.910156 28.421875 17.519531 30.40625 17.519531 C 32.386719 17.519531 33.992188 15.910156 33.992188 13.929688 C 33.992188 11.945312 32.386719 10.339844 30.40625 10.339844 Z M 30.40625 10.339844 "/></clipPath><clipPath id="26e52fd58a"><path d="M 26.816406 10.339844 L 33.992188 10.339844 L 33.992188 17.515625 L 26.816406 17.515625 Z M 26.816406 10.339844 "/></clipPath><clipPath id="c8d64b3d63"><path d="M 30.402344 10.339844 C 28.421875 10.339844 26.816406 11.945312 26.816406 13.925781 C 26.816406 15.910156 28.421875 17.515625 30.402344 17.515625 C 32.382812 17.515625 33.992188 15.910156 33.992188 13.925781 C 33.992188 11.945312 32.382812 10.339844 30.402344 10.339844 Z M 30.402344 10.339844 "/></clipPath><clipPath id="5ae145a81a"><path d="M 11.757812 21.105469 L 18.933594 21.105469 L 18.933594 28.285156 L 11.757812 28.285156 Z M 11.757812 21.105469 "/></clipPath><clipPath id="0553353519"><path d="M 15.34375 21.105469 C 13.363281 21.105469 11.757812 22.714844 11.757812 24.695312 C 11.757812 26.679688 13.363281 28.285156 15.34375 28.285156 C 17.328125 28.285156 18.933594 26.679688 18.933594 24.695312 C 18.933594 22.714844 17.328125 21.105469 15.34375 21.105469 Z M 15.34375 21.105469 "/></clipPath><clipPath id="b588705c98"><path d="M 11.757812 21.105469 L 18.929688 21.105469 L 18.929688 28.28125 L 11.757812 28.28125 Z M 11.757812 21.105469 "/></clipPath><clipPath id="62e973f334"><path d="M 15.34375 21.105469 C 13.363281 21.105469 11.757812 22.714844 11.757812 24.695312 C 11.757812 26.675781 13.363281 28.28125 15.34375 28.28125 C 17.324219 28.28125 18.929688 26.675781 18.929688 24.695312 C 18.929688 22.714844 17.324219 21.105469 15.34375 21.105469 Z M 15.34375 21.105469 "/></clipPath><clipPath id="5620871e16"><path d="M 24.164062 25.476562 L 31.34375 25.476562 L 31.34375 32.65625 L 24.164062 32.65625 Z M 24.164062 25.476562 "/></clipPath><clipPath id="3387fdef04"><path d="M 27.753906 25.476562 C 25.769531 25.476562 24.164062 27.082031 24.164062 29.066406 C 24.164062 31.046875 25.769531 32.65625 27.753906 32.65625 C 29.734375 32.65625 31.34375 31.046875 31.34375 29.066406 C 31.34375 27.082031 29.734375 25.476562 27.753906 25.476562 Z M 27.753906 25.476562 "/></clipPath><clipPath id="e847901884"><path d="M 24.164062 25.476562 L 31.339844 25.476562 L 31.339844 32.652344 L 24.164062 32.652344 Z M 24.164062 25.476562 "/></clipPath><clipPath id="b0bdba55cb"><path d="M 27.75 25.476562 C 25.769531 25.476562 24.164062 27.082031 24.164062 29.0625 C 24.164062 31.046875 25.769531 32.652344 27.75 32.652344 C 29.734375 32.652344 31.339844 31.046875 31.339844 29.0625 C 31.339844 27.082031 29.734375 25.476562 27.75 25.476562 Z M 27.75 25.476562 "/></clipPath><clipPath id="fde1111955"><path d="M 24.164062 50.816406 L 31.34375 50.816406 L 31.34375 57.992188 L 24.164062 57.992188 Z M 24.164062 50.816406 "/></clipPath><clipPath id="749953bf13"><path d="M 27.753906 50.816406 C 25.769531 50.816406 24.164062 52.421875 24.164062 54.40625 C 24.164062 56.386719 25.769531 57.992188 27.753906 57.992188 C 29.734375 57.992188 31.34375 56.386719 31.34375 54.40625 C 31.34375 52.421875 29.734375 50.816406 27.753906 50.816406 Z M 27.753906 50.816406 "/></clipPath><clipPath id="49a8c92051"><path d="M 24.164062 50.816406 L 31.339844 50.816406 L 31.339844 57.992188 L 24.164062 57.992188 Z M 24.164062 50.816406 "/></clipPath><clipPath id="78fbb80404"><path d="M 27.75 50.816406 C 25.769531 50.816406 24.164062 52.421875 24.164062 54.402344 C 24.164062 56.382812 25.769531 57.992188 27.75 57.992188 C 29.734375 57.992188 31.339844 56.382812 31.339844 54.402344 C 31.339844 52.421875 29.734375 50.816406 27.75 50.816406 Z M 27.75 50.816406 "/></clipPath><clipPath id="9c9bed775f"><path d="M 1.441406 50.816406 L 8.621094 50.816406 L 8.621094 57.992188 L 1.441406 57.992188 Z M 1.441406 50.816406 "/></clipPath><clipPath id="ff646ae9c0"><path d="M 5.03125 50.816406 C 3.050781 50.816406 1.441406 52.421875 1.441406 54.40625 C 1.441406 56.386719 3.050781 57.992188 5.03125 57.992188 C 7.011719 57.992188 8.621094 56.386719 8.621094 54.40625 C 8.621094 52.421875 7.011719 50.816406 5.03125 50.816406 Z M 5.03125 50.816406 "/></clipPath><clipPath id="260f323aed"><path d="M 1.441406 50.816406 L 8.617188 50.816406 L 8.617188 57.992188 L 1.441406 57.992188 Z M 1.441406 50.816406 "/></clipPath><clipPath id="58d54732a8"><path d="M 5.03125 50.816406 C 3.046875 50.816406 1.441406 52.421875 1.441406 54.402344 C 1.441406 56.382812 3.046875 57.992188 5.03125 57.992188 C 7.011719 57.992188 8.617188 56.382812 8.617188 54.402344 C 8.617188 52.421875 7.011719 50.816406 5.03125 50.816406 Z M 5.03125 50.816406 "/></clipPath><clipPath id="2e4e8c4d67"><path d="M 31.34375 65.527344 L 38.519531 65.527344 L 38.519531 72.707031 L 31.34375 72.707031 Z M 31.34375 65.527344 "/></clipPath><clipPath id="2ce852b150"><path d="M 34.929688 65.527344 C 32.949219 65.527344 31.34375 67.136719 31.34375 69.117188 C 31.34375 71.101562 32.949219 72.707031 34.929688 72.707031 C 36.914062 72.707031 38.519531 71.101562 38.519531 69.117188 C 38.519531 67.136719 36.914062 65.527344 34.929688 65.527344 Z M 34.929688 65.527344 "/></clipPath><clipPath id="4196aa1261"><path d="M 31.34375 65.527344 L 38.515625 65.527344 L 38.515625 72.703125 L 31.34375 72.703125 Z M 31.34375 65.527344 "/></clipPath><clipPath id="cfc6755245"><path d="M 34.929688 65.527344 C 32.949219 65.527344 31.34375 67.136719 31.34375 69.117188 C 31.34375 71.097656 32.949219 72.703125 34.929688 72.703125 C 36.910156 72.703125 38.515625 71.097656 38.515625 69.117188 C 38.515625 67.136719 36.910156 65.527344 34.929688 65.527344 Z M 34.929688 65.527344 "/></clipPath><clipPath id="ee9927fd62"><path d="M 11.757812 80.761719 L 18.933594 80.761719 L 18.933594 87.941406 L 11.757812 87.941406 Z M 11.757812 80.761719 "/></clipPath><clipPath id="f343512d5d"><path d="M 15.34375 80.761719 C 13.363281 80.761719 11.757812 82.371094 11.757812 84.351562 C 11.757812 86.332031 13.363281 87.941406 15.34375 87.941406 C 17.328125 87.941406 18.933594 86.332031 18.933594 84.351562 C 18.933594 82.371094 17.328125 80.761719 15.34375 80.761719 Z M 15.34375 80.761719 "/></clipPath><clipPath id="79c8de06c9"><path d="M 24.164062 77.171875 L 31.34375 77.171875 L 31.34375 84.351562 L 24.164062 84.351562 Z M 24.164062 77.171875 "/></clipPath><clipPath id="16a3695a71"><path d="M 27.753906 77.171875 C 25.769531 77.171875 24.164062 78.78125 24.164062 80.761719 C 24.164062 82.746094 25.769531 84.351562 27.753906 84.351562 C 29.734375 84.351562 31.34375 82.746094 31.34375 80.761719 C 31.34375 78.78125 29.734375 77.171875 27.753906 77.171875 Z M 27.753906 77.171875 "/></clipPath><clipPath id="165a1ce362"><path d="M 60.261719 86.632812 L 67.441406 86.632812 L 67.441406 93.8125 L 60.261719 93.8125 Z M 60.261719 86.632812 "/></clipPath><clipPath id="3e7fa45c7a"><path d="M 63.851562 86.632812 C 61.871094 86.632812 60.261719 88.238281 60.261719 90.222656 C 60.261719 92.203125 61.871094 93.8125 63.851562 93.8125 C 65.835938 93.8125 67.441406 92.203125 67.441406 90.222656 C 67.441406 88.238281 65.835938 86.632812 63.851562 86.632812 Z M 63.851562 86.632812 "/></clipPath><clipPath id="88bbbe07b4"><path d="M 68.253906 69.117188 L 75.429688 69.117188 L 75.429688 76.296875 L 68.253906 76.296875 Z M 68.253906 69.117188 "/></clipPath><clipPath id="46186a1fc5"><path d="M 71.84375 69.117188 C 69.859375 69.117188 68.253906 70.722656 68.253906 72.707031 C 68.253906 74.6875 69.859375 76.296875 71.84375 76.296875 C 73.824219 76.296875 75.429688 74.6875 75.429688 72.707031 C 75.429688 70.722656 73.824219 69.117188 71.84375 69.117188 Z M 71.84375 69.117188 "/></clipPath><clipPath id="62f4b5596e"><path d="M 40.125 86.632812 L 47.300781 86.632812 L 47.300781 93.8125 L 40.125 93.8125 Z M 40.125 86.632812 "/></clipPath><clipPath id="8da89a24da"><path d="M 43.714844 86.632812 C 41.730469 86.632812 40.125 88.238281 40.125 90.222656 C 40.125 92.203125 41.730469 93.8125 43.714844 93.8125 C 45.695312 93.8125 47.300781 92.203125 47.300781 90.222656 C 47.300781 88.238281 45.695312 86.632812 43.714844 86.632812 Z M 43.714844 86.632812 "/></clipPath><clipPath id="d370662bc3"><path d="M 26.816406 93.8125 L 33.992188 93.8125 L 33.992188 100.988281 L 26.816406 100.988281 Z M 26.816406 93.8125 "/></clipPath><clipPath id="cc618eca96"><path d="M 30.40625 93.8125 C 28.421875 93.8125 26.816406 95.417969 26.816406 97.398438 C 26.816406 99.382812 28.421875 100.988281 30.40625 100.988281 C 32.386719 100.988281 33.992188 99.382812 33.992188 97.398438 C 33.992188 95.417969 32.386719 93.8125 30.40625 93.8125 Z M 30.40625 93.8125 "/></clipPath><clipPath id="e86b29a1e7"><path d="M 49.328125 104.304688 L 56.507812 104.304688 L 56.507812 111.480469 L 49.328125 111.480469 Z M 49.328125 104.304688 "/></clipPath><clipPath id="5ee1f58ab5"><path d="M 52.917969 104.304688 C 50.9375 104.304688 49.328125 105.910156 49.328125 107.894531 C 49.328125 109.875 50.9375 111.480469 52.917969 111.480469 C 54.902344 111.480469 56.507812 109.875 56.507812 107.894531 C 56.507812 105.910156 54.902344 104.304688 52.917969 104.304688 Z M 52.917969 104.304688 "/></clipPath><clipPath id="07969bf884"><path d="M 84.808594 86.632812 L 91.988281 86.632812 L 91.988281 93.8125 L 84.808594 93.8125 Z M 84.808594 86.632812 "/></clipPath><clipPath id="6cf97579da"><path d="M 88.398438 86.632812 C 86.414062 86.632812 84.808594 88.238281 84.808594 90.222656 C 84.808594 92.203125 86.414062 93.8125 88.398438 93.8125 C 90.378906 93.8125 91.988281 92.203125 91.988281 90.222656 C 91.988281 88.238281 90.378906 86.632812 88.398438 86.632812 Z M 88.398438 86.632812 "/></clipPath><clipPath id="f224eabc05"><path d="M 76.667969 77.65625 L 83.847656 77.65625 L 83.847656 84.832031 L 76.667969 84.832031 Z M 76.667969 77.65625 "/></clipPath><clipPath id="a89790794d"><path d="M 80.257812 77.65625 C 78.277344 77.65625 76.667969 79.261719 76.667969 81.246094 C 76.667969 83.226562 78.277344 84.832031 80.257812 84.832031 C 82.242188 84.832031 83.847656 83.226562 83.847656 81.246094 C 83.847656 79.261719 82.242188 77.65625 80.257812 77.65625 Z M 80.257812 77.65625 "/></clipPath><clipPath id="211ab94ea5"><path d="M 68.253906 100.714844 L 75.429688 100.714844 L 75.429688 107.894531 L 68.253906 107.894531 Z M 68.253906 100.714844 "/></clipPath><clipPath id="020ec42d23"><path d="M 71.84375 100.714844 C 69.859375 100.714844 68.253906 102.320312 68.253906 104.304688 C 68.253906 106.285156 69.859375 107.894531 71.84375 107.894531 C 73.824219 107.894531 75.429688 106.285156 75.429688 104.304688 C 75.429688 102.320312 73.824219 100.714844 71.84375 100.714844 Z M 71.84375 100.714844 "/></clipPath><clipPath id="8aad312370"><path d="M 53.085938 77.171875 L 60.261719 77.171875 L 60.261719 84.351562 L 53.085938 84.351562 Z M 53.085938 77.171875 "/></clipPath><clipPath id="1b47d43435"><path d="M 56.675781 77.171875 C 54.691406 77.171875 53.085938 78.78125 53.085938 80.761719 C 53.085938 82.746094 54.691406 84.351562 56.675781 84.351562 C 58.65625 84.351562 60.261719 82.746094 60.261719 80.761719 C 60.261719 78.78125 58.65625 77.171875 56.675781 77.171875 Z M 56.675781 77.171875 "/></clipPath><clipPath id="e008ff480e"><path d="M 16.03125 41.644531 L 23.207031 41.644531 L 23.207031 48.824219 L 16.03125 48.824219 Z M 16.03125 41.644531 "/></clipPath><clipPath id="7588d378f2"><path d="M 19.621094 41.644531 C 17.636719 41.644531 16.03125 43.253906 16.03125 45.234375 C 16.03125 47.21875 17.636719 48.824219 19.621094 48.824219 C 21.601562 48.824219 23.207031 47.21875 23.207031 45.234375 C 23.207031 43.253906 21.601562 41.644531 19.621094 41.644531 Z M 19.621094 41.644531 "/></clipPath><clipPath id="63e8e622e4"><path d="M 15.9375 61.941406 L 23.113281 61.941406 L 23.113281 69.117188 L 15.9375 69.117188 Z M 15.9375 61.941406 "/></clipPath><clipPath id="59e4600072"><path d="M 19.527344 61.941406 C 17.542969 61.941406 15.9375 63.546875 15.9375 65.527344 C 15.9375 67.511719 17.542969 69.117188 19.527344 69.117188 C 21.507812 69.117188 23.113281 67.511719 23.113281 65.527344 C 23.113281 63.546875 21.507812 61.941406 19.527344 61.941406 Z M 19.527344 61.941406 "/></clipPath><clipPath id="94a8a86bc0"><path d="M 15.9375 61.941406 L 23.113281 61.941406 L 23.113281 69.113281 L 15.9375 69.113281 Z M 15.9375 61.941406 "/></clipPath><clipPath id="7216b93c6f"><path d="M 19.523438 61.941406 C 17.542969 61.941406 15.9375 63.546875 15.9375 65.527344 C 15.9375 67.507812 17.542969 69.113281 19.523438 69.113281 C 21.503906 69.113281 23.113281 67.507812 23.113281 65.527344 C 23.113281 63.546875 21.503906 61.941406 19.523438 61.941406 Z M 19.523438 61.941406 "/></clipPath><clipPath id="20b6066a0f"><path d="M 1.441406 23 L 20 23 L 20 56 L 1.441406 56 Z M 1.441406 23 "/></clipPath><clipPath id="ace6c22760"><path d="M 1.441406 52 L 20 52 L 20 86 L 1.441406 86 Z M 1.441406 52 "/></clipPath></defs><g id="c7372c6bd8"><g clip-rule="nonzero" clip-path="url(#e8a0175a49)"><g clip-rule="nonzero" clip-path="url(#31a0fa1ef4)"><path style=" stroke:none;fill-rule:nonzero;fill:#004aad;fill-opacity:1;" d="M 68.253906 7.613281 L 75.429688 7.613281 L 75.429688 14.789062 L 68.253906 14.789062 Z M 68.253906 7.613281 "/></g></g><g clip-rule="nonzero" clip-path="url(#a7585d9f8a)"><g clip-rule="nonzero" clip-path="url(#6e5b3955fc)"><path style="fill:none;stroke-width:27.171568;stroke-linecap:butt;stroke-linejoin:miter;stroke:#004aad;stroke-opacity:1;stroke-miterlimit:4;" d="M 16.345845 0.00668486 C 7.319242 0.00668486 0.0018186 7.324109 0.0018186 16.350712 C 0.0018186 25.377315 7.319242 32.694738 16.345845 32.694738 C 25.390252 32.694738 32.707676 25.377315 32.707676 16.350712 C 32.707676 7.324109 25.390252 0.00668486 16.345845 0.00668486 Z M 16.345845 0.00668486 " transform="matrix(0.219404,0,0,0.219404,68.253507,7.611815)"/></g></g><g clip-rule="nonzero" clip-path="url(#95f744082a)"><g clip-rule="nonzero" clip-path="url(#e60d5f42f6)"><path style=" stroke:none;fill-rule:nonzero;fill:#004aad;fill-opacity:1;" d="M 84.808594 17.519531 L 91.988281 17.519531 L 91.988281 24.695312 L 84.808594 24.695312 Z M 84.808594 17.519531 "/></g></g><g clip-rule="nonzero" clip-path="url(#baeec4b1f2)"><g clip-rule="nonzero" clip-path="url(#f3c9b70a7c)"><path style="fill:none;stroke-width:27.171568;stroke-linecap:butt;stroke-linejoin:miter;stroke:#004aad;stroke-opacity:1;stroke-miterlimit:4;" d="M 16.360006 0.00650736 C 7.315599 0.00650736 -0.00182451 7.323931 -0.00182451 16.350534 C -0.00182451 25.377137 7.315599 32.694561 16.360006 32.694561 C 25.386609 32.694561 32.704033 25.377137 32.704033 16.350534 C 32.704033 7.323931 25.386609 0.00650736 16.360006 0.00650736 Z M 16.360006 0.00650736 " transform="matrix(0.219404,0,0,0.219404,84.808994,17.518104)"/></g></g><g clip-rule="nonzero" clip-path="url(#08971aabd3)"><g clip-rule="nonzero" clip-path="url(#f8a12be50f)"><path style=" stroke:none;fill-rule:nonzero;fill:#5271ff;fill-opacity:1;" d="M 76.964844 25.476562 L 84.140625 25.476562 L 84.140625 32.65625 L 76.964844 32.65625 Z M 76.964844 25.476562 "/></g></g><g clip-rule="nonzero" clip-path="url(#c22f6dbf1b)"><g clip-rule="nonzero" clip-path="url(#0733d4b22a)"><path style="fill:none;stroke-width:27.171568;stroke-linecap:butt;stroke-linejoin:miter;stroke:#5271ff;stroke-opacity:1;stroke-miterlimit:4;" d="M 16.348715 -0.000338831 C 7.322112 -0.000338831 0.00468849 7.317085 0.00468849 16.343688 C 0.00468849 25.388095 7.322112 32.705519 16.348715 32.705519 C 25.375318 32.705519 32.710546 25.388095 32.710546 16.343688 C 32.710546 7.317085 25.375318 -0.000338831 16.348715 -0.000338831 Z M 16.348715 -0.000338831 " transform="matrix(0.219404,0,0,0.219404,76.963815,25.476637)"/></g></g><g clip-rule="nonzero" clip-path="url(#069c3ace9e)"><g clip-rule="nonzero" clip-path="url(#d3772c57e6)"><path style=" stroke:none;fill-rule:nonzero;fill:#004aad;fill-opacity:1;" d="M 60.261719 17.519531 L 67.441406 17.519531 L 67.441406 24.695312 L 60.261719 24.695312 Z M 60.261719 17.519531 "/></g></g><g clip-rule="nonzero" clip-path="url(#99fe1b270d)"><g clip-rule="nonzero" clip-path="url(#9df15cd043)"><path style="fill:none;stroke-width:27.171568;stroke-linecap:butt;stroke-linejoin:miter;stroke:#004aad;stroke-opacity:1;stroke-miterlimit:4;" d="M 16.35462 0.00650736 C 7.328017 0.00650736 -0.00721041 7.323931 -0.00721041 16.350534 C -0.00721041 25.377137 7.328017 32.694561 16.35462 32.694561 C 25.381223 32.694561 32.698647 25.377137 32.698647 16.350534 C 32.698647 7.323931 25.381223 0.00650736 16.35462 0.00650736 Z M 16.35462 0.00650736 " transform="matrix(0.219404,0,0,0.219404,60.263301,17.518104)"/></g></g><g clip-rule="nonzero" clip-path="url(#c235663e24)"><g clip-rule="nonzero" clip-path="url(#75df673948)"><path style=" stroke:none;fill-rule:nonzero;fill:#5271ff;fill-opacity:1;" d="M 68.253906 34.46875 L 75.429688 34.46875 L 75.429688 41.644531 L 68.253906 41.644531 Z M 68.253906 34.46875 "/></g></g><g clip-rule="nonzero" clip-path="url(#d0b9eba090)"><g clip-rule="nonzero" clip-path="url(#41cd5d1f5f)"><path style="fill:none;stroke-width:27.171568;stroke-linecap:butt;stroke-linejoin:miter;stroke:#5271ff;stroke-opacity:1;stroke-miterlimit:4;" d="M 16.345845 0.00427283 C 7.319242 0.00427283 0.0018186 7.321697 0.0018186 16.3483 C 0.0018186 25.374903 7.319242 32.71013 16.345845 32.71013 C 25.390252 32.71013 32.707676 25.374903 32.707676 16.3483 C 32.707676 7.321697 25.390252 0.00427283 16.345845 0.00427283 Z M 16.345845 0.00427283 " transform="matrix(0.219404,0,0,0.219404,68.253507,34.467813)"/></g></g><g clip-rule="nonzero" clip-path="url(#1098f86490)"><g clip-rule="nonzero" clip-path="url(#754cbb6a0b)"><path style=" stroke:none;fill-rule:nonzero;fill:#5271ff;fill-opacity:1;" d="M 53.085938 25.476562 L 60.261719 25.476562 L 60.261719 32.65625 L 53.085938 32.65625 Z M 53.085938 25.476562 "/></g></g><g clip-rule="nonzero" clip-path="url(#9c5a5cbc17)"><g clip-rule="nonzero" clip-path="url(#ed3e7ae7cc)"><path style="fill:none;stroke-width:27.171568;stroke-linecap:butt;stroke-linejoin:miter;stroke:#5271ff;stroke-opacity:1;stroke-miterlimit:4;" d="M 16.347024 -0.000338831 C 7.320421 -0.000338831 0.00299735 7.317085 0.00299735 16.343688 C 0.00299735 25.388095 7.320421 32.705519 16.347024 32.705519 C 25.373627 32.705519 32.708855 25.388095 32.708855 16.343688 C 32.708855 7.317085 25.373627 -0.000338831 16.347024 -0.000338831 Z M 16.347024 -0.000338831 " transform="matrix(0.219404,0,0,0.219404,53.08528,25.476637)"/></g></g><g clip-rule="nonzero" clip-path="url(#34e6519ad2)"><g clip-rule="nonzero" clip-path="url(#bbd43695c4)"><path style=" stroke:none;fill-rule:nonzero;fill:#004aad;fill-opacity:1;" d="M 48.667969 4.023438 L 55.84375 4.023438 L 55.84375 11.199219 L 48.667969 11.199219 Z M 48.667969 4.023438 "/></g></g><g clip-rule="nonzero" clip-path="url(#d625cfe96c)"><g clip-rule="nonzero" clip-path="url(#1e5d6e575a)"><path style="fill:none;stroke-width:27.171568;stroke-linecap:butt;stroke-linejoin:miter;stroke:#004aad;stroke-opacity:1;stroke-miterlimit:4;" d="M 16.347875 0.00287589 C 7.321272 0.00287589 0.00384831 7.3203 0.00384831 16.346903 C 0.00384831 25.373506 7.321272 32.708733 16.347875 32.708733 C 25.374478 32.708733 32.709706 25.373506 32.709706 16.346903 C 32.709706 7.3203 25.374478 0.00287589 16.347875 0.00287589 Z M 16.347875 0.00287589 " transform="matrix(0.219404,0,0,0.219404,48.667124,4.022807)"/></g></g><g clip-rule="nonzero" clip-path="url(#ba1e5973ae)"><g clip-rule="nonzero" clip-path="url(#3350d4a404)"><path style=" stroke:none;fill-rule:nonzero;fill:#004aad;fill-opacity:1;" d="M 40.125 17.519531 L 47.300781 17.519531 L 47.300781 24.695312 L 40.125 24.695312 Z M 40.125 17.519531 "/></g></g><g clip-rule="nonzero" clip-path="url(#36fc3221ae)"><g clip-rule="nonzero" clip-path="url(#09f7443c20)"><path style="fill:none;stroke-width:27.171568;stroke-linecap:butt;stroke-linejoin:miter;stroke:#004aad;stroke-opacity:1;stroke-miterlimit:4;" d="M 16.346744 0.00650736 C 7.320141 0.00650736 0.00271754 7.323931 0.00271754 16.350534 C 0.00271754 25.377137 7.320141 32.694561 16.346744 32.694561 C 25.391151 32.694561 32.708575 25.377137 32.708575 16.350534 C 32.708575 7.323931 25.391151 0.00650736 16.346744 0.00650736 Z M 16.346744 0.00650736 " transform="matrix(0.219404,0,0,0.219404,40.124404,17.518104)"/></g></g><g clip-rule="nonzero" clip-path="url(#7f5b15bc2c)"><g clip-rule="nonzero" clip-path="url(#0a3c8d635b)"><path style=" stroke:none;fill-rule:nonzero;fill:#5271ff;fill-opacity:1;" d="M 31.34375 38.058594 L 38.519531 38.058594 L 38.519531 45.234375 L 31.34375 45.234375 Z M 31.34375 38.058594 "/></g></g><g clip-rule="nonzero" clip-path="url(#6476f998ba)"><g clip-rule="nonzero" clip-path="url(#c0c02e4786)"><path style=" stroke:none;fill-rule:nonzero;fill:#004aad;fill-opacity:1;" d="M 26.816406 10.339844 L 33.992188 10.339844 L 33.992188 17.519531 L 26.816406 17.519531 Z M 26.816406 10.339844 "/></g></g><g clip-rule="nonzero" clip-path="url(#26e52fd58a)"><g clip-rule="nonzero" clip-path="url(#c8d64b3d63)"><path style="fill:none;stroke-width:27.171568;stroke-linecap:butt;stroke-linejoin:miter;stroke:#004aad;stroke-opacity:1;stroke-miterlimit:4;" d="M 16.348575 -0.00110622 C 7.321972 -0.00110622 0.00454797 7.316318 0.00454797 16.342921 C 0.00454797 25.387328 7.321972 32.704751 16.348575 32.704751 C 25.375178 32.704751 32.710405 25.387328 32.710405 16.342921 C 32.710405 7.316318 25.375178 -0.00110622 16.348575 -0.00110622 Z M 16.348575 -0.00110622 " transform="matrix(0.219404,0,0,0.219404,26.815408,10.340086)"/></g></g><g clip-rule="nonzero" clip-path="url(#5ae145a81a)"><g clip-rule="nonzero" clip-path="url(#0553353519)"><path style=" stroke:none;fill-rule:nonzero;fill:#004aad;fill-opacity:1;" d="M 11.757812 21.105469 L 18.933594 21.105469 L 18.933594 28.285156 L 11.757812 28.285156 Z M 11.757812 21.105469 "/></g></g><g clip-rule="nonzero" clip-path="url(#b588705c98)"><g clip-rule="nonzero" clip-path="url(#62e973f334)"><path style="fill:none;stroke-width:27.171568;stroke-linecap:butt;stroke-linejoin:miter;stroke:#004aad;stroke-opacity:1;stroke-miterlimit:4;" d="M 16.351571 -0.0074985 C 7.324968 -0.0074985 0.00754438 7.327729 0.00754438 16.354332 C 0.00754438 25.380935 7.324968 32.698359 16.351571 32.698359 C 25.378174 32.698359 32.695598 25.380935 32.695598 16.354332 C 32.695598 7.327729 25.378174 -0.0074985 16.351571 -0.0074985 Z M 16.351571 -0.0074985 " transform="matrix(0.219404,0,0,0.219404,11.756157,21.107114)"/></g></g><g clip-rule="nonzero" clip-path="url(#5620871e16)"><g clip-rule="nonzero" clip-path="url(#3387fdef04)"><path style=" stroke:none;fill-rule:nonzero;fill:#5271ff;fill-opacity:1;" d="M 24.164062 25.476562 L 31.34375 25.476562 L 31.34375 32.65625 L 24.164062 32.65625 Z M 24.164062 25.476562 "/></g></g><g clip-rule="nonzero" clip-path="url(#e847901884)"><g clip-rule="nonzero" clip-path="url(#b0bdba55cb)"><path style="fill:none;stroke-width:27.171568;stroke-linecap:butt;stroke-linejoin:miter;stroke:#5271ff;stroke-opacity:1;stroke-miterlimit:4;" d="M 16.344215 -0.000338831 C 7.317612 -0.000338831 0.000187852 7.317085 0.000187852 16.343688 C 0.000187852 25.388095 7.317612 32.705519 16.344215 32.705519 C 25.388622 32.705519 32.706045 25.388095 32.706045 16.343688 C 32.706045 7.317085 25.388622 -0.000338831 16.344215 -0.000338831 Z M 16.344215 -0.000338831 " transform="matrix(0.219404,0,0,0.219404,24.164021,25.476637)"/></g></g><g clip-rule="nonzero" clip-path="url(#fde1111955)"><g clip-rule="nonzero" clip-path="url(#749953bf13)"><path style=" stroke:none;fill-rule:nonzero;fill:#38b6ff;fill-opacity:1;" d="M 24.164062 50.816406 L 31.34375 50.816406 L 31.34375 57.992188 L 24.164062 57.992188 Z M 24.164062 50.816406 "/></g></g><g clip-rule="nonzero" clip-path="url(#49a8c92051)"><g clip-rule="nonzero" clip-path="url(#78fbb80404)"><path style="fill:none;stroke-width:27.171568;stroke-linecap:butt;stroke-linejoin:miter;stroke:#38b6ff;stroke-opacity:1;stroke-miterlimit:4;" d="M 16.344215 0.00477542 C 7.317612 0.00477542 0.000187852 7.322199 0.000187852 16.348802 C 0.000187852 25.375405 7.317612 32.710633 16.344215 32.710633 C 25.388622 32.710633 32.706045 25.375405 32.706045 16.348802 C 32.706045 7.322199 25.388622 0.00477542 16.344215 0.00477542 Z M 16.344215 0.00477542 " transform="matrix(0.219404,0,0,0.219404,24.164021,50.815359)"/></g></g><g clip-rule="nonzero" clip-path="url(#9c9bed775f)"><g clip-rule="nonzero" clip-path="url(#ff646ae9c0)"><path style=" stroke:none;fill-rule:nonzero;fill:#38b6ff;fill-opacity:1;" d="M 1.441406 50.816406 L 8.621094 50.816406 L 8.621094 57.992188 L 1.441406 57.992188 Z M 1.441406 50.816406 "/></g></g><g clip-rule="nonzero" clip-path="url(#260f323aed)"><g clip-rule="nonzero" clip-path="url(#58d54732a8)"><path style="fill:none;stroke-width:27.171568;stroke-linecap:butt;stroke-linejoin:miter;stroke:#38b6ff;stroke-opacity:1;stroke-miterlimit:4;" d="M 16.357691 0.00477542 C 7.313284 0.00477542 -0.00413928 7.322199 -0.00413928 16.348802 C -0.00413928 25.375405 7.313284 32.710633 16.357691 32.710633 C 25.384294 32.710633 32.701718 25.375405 32.701718 16.348802 C 32.701718 7.322199 25.384294 0.00477542 16.357691 0.00477542 Z M 16.357691 0.00477542 " transform="matrix(0.219404,0,0,0.219404,1.442314,50.815359)"/></g></g><g clip-rule="nonzero" clip-path="url(#2e4e8c4d67)"><g clip-rule="nonzero" clip-path="url(#2ce852b150)"><path style=" stroke:none;fill-rule:nonzero;fill:#a6a6a6;fill-opacity:1;" d="M 31.34375 65.527344 L 38.519531 65.527344 L 38.519531 72.707031 L 31.34375 72.707031 Z M 31.34375 65.527344 "/></g></g><g clip-rule="nonzero" clip-path="url(#4196aa1261)"><g clip-rule="nonzero" clip-path="url(#cfc6755245)"><path style="fill:none;stroke-width:27.171568;stroke-linecap:butt;stroke-linejoin:miter;stroke:#a6a6a6;stroke-opacity:1;stroke-miterlimit:4;" d="M 16.351836 -0.0063077 C 7.325233 -0.0063077 0.00780904 7.32892 0.00780904 16.355523 C 0.00780904 25.382126 7.325233 32.69955 16.351836 32.69955 C 25.378439 32.69955 32.695863 25.382126 32.695863 16.355523 C 32.695863 7.32892 25.378439 -0.0063077 16.351836 -0.0063077 Z M 16.351836 -0.0063077 " transform="matrix(0.219404,0,0,0.219404,31.342037,65.528728)"/></g></g><g clip-rule="nonzero" clip-path="url(#ee9927fd62)"><g clip-rule="nonzero" clip-path="url(#f343512d5d)"><path style=" stroke:none;fill-rule:nonzero;fill:#a6a6a6;fill-opacity:1;" d="M 11.757812 80.761719 L 18.933594 80.761719 L 18.933594 87.941406 L 11.757812 87.941406 Z M 11.757812 80.761719 "/></g></g><g clip-rule="nonzero" clip-path="url(#79c8de06c9)"><g clip-rule="nonzero" clip-path="url(#16a3695a71)"><path style=" stroke:none;fill-rule:nonzero;fill:#a6a6a6;fill-opacity:1;" d="M 24.164062 77.171875 L 31.34375 77.171875 L 31.34375 84.351562 L 24.164062 84.351562 Z M 24.164062 77.171875 "/></g></g><g clip-rule="nonzero" clip-path="url(#165a1ce362)"><g clip-rule="nonzero" clip-path="url(#3e7fa45c7a)"><path style=" stroke:none;fill-rule:nonzero;fill:#737373;fill-opacity:1;" d="M 60.261719 86.632812 L 67.441406 86.632812 L 67.441406 93.8125 L 60.261719 93.8125 Z M 60.261719 86.632812 "/></g></g><g clip-rule="nonzero" clip-path="url(#88bbbe07b4)"><g clip-rule="nonzero" clip-path="url(#46186a1fc5)"><path style=" stroke:none;fill-rule:nonzero;fill:#a6a6a6;fill-opacity:1;" d="M 68.253906 69.117188 L 75.429688 69.117188 L 75.429688 76.296875 L 68.253906 76.296875 Z M 68.253906 69.117188 "/></g></g><g clip-rule="nonzero" clip-path="url(#62f4b5596e)"><g clip-rule="nonzero" clip-path="url(#8da89a24da)"><path style=" stroke:none;fill-rule:nonzero;fill:#737373;fill-opacity:1;" d="M 40.125 86.632812 L 47.300781 86.632812 L 47.300781 93.8125 L 40.125 93.8125 Z M 40.125 86.632812 "/></g></g><g clip-rule="nonzero" clip-path="url(#d370662bc3)"><g clip-rule="nonzero" clip-path="url(#cc618eca96)"><path style=" stroke:none;fill-rule:nonzero;fill:#2b2b2b;fill-opacity:1;" d="M 26.816406 93.8125 L 33.992188 93.8125 L 33.992188 100.988281 L 26.816406 100.988281 Z M 26.816406 93.8125 "/></g></g><g clip-rule="nonzero" clip-path="url(#e86b29a1e7)"><g clip-rule="nonzero" clip-path="url(#5ee1f58ab5)"><path style=" stroke:none;fill-rule:nonzero;fill:#2b2b2b;fill-opacity:1;" d="M 49.328125 104.304688 L 56.507812 104.304688 L 56.507812 111.480469 L 49.328125 111.480469 Z M 49.328125 104.304688 "/></g></g><g clip-rule="nonzero" clip-path="url(#07969bf884)"><g clip-rule="nonzero" clip-path="url(#6cf97579da)"><path style=" stroke:none;fill-rule:nonzero;fill:#737373;fill-opacity:1;" d="M 84.808594 86.632812 L 91.988281 86.632812 L 91.988281 93.8125 L 84.808594 93.8125 Z M 84.808594 86.632812 "/></g></g><g clip-rule="nonzero" clip-path="url(#f224eabc05)"><g clip-rule="nonzero" clip-path="url(#a89790794d)"><path style=" stroke:none;fill-rule:nonzero;fill:#737373;fill-opacity:1;" d="M 76.667969 77.65625 L 83.847656 77.65625 L 83.847656 84.832031 L 76.667969 84.832031 Z M 76.667969 77.65625 "/></g></g><g clip-rule="nonzero" clip-path="url(#211ab94ea5)"><g clip-rule="nonzero" clip-path="url(#020ec42d23)"><path style=" stroke:none;fill-rule:nonzero;fill:#2b2b2b;fill-opacity:1;" d="M 68.253906 100.714844 L 75.429688 100.714844 L 75.429688 107.894531 L 68.253906 107.894531 Z M 68.253906 100.714844 "/></g></g><g clip-rule="nonzero" clip-path="url(#8aad312370)"><g clip-rule="nonzero" clip-path="url(#1b47d43435)"><path style=" stroke:none;fill-rule:nonzero;fill:#737373;fill-opacity:1;" d="M 53.085938 77.171875 L 60.261719 77.171875 L 60.261719 84.351562 L 53.085938 84.351562 Z M 53.085938 77.171875 "/></g></g><g clip-rule="nonzero" clip-path="url(#e008ff480e)"><g clip-rule="nonzero" clip-path="url(#7588d378f2)"><path style=" stroke:none;fill-rule:nonzero;fill:#38b6ff;fill-opacity:1;" d="M 16.03125 41.644531 L 23.207031 41.644531 L 23.207031 48.824219 L 16.03125 48.824219 Z M 16.03125 41.644531 "/></g></g><g clip-rule="nonzero" clip-path="url(#63e8e622e4)"><g clip-rule="nonzero" clip-path="url(#59e4600072)"><path style=" stroke:none;fill-rule:nonzero;fill:#a6a6a6;fill-opacity:1;" d="M 15.9375 61.941406 L 23.113281 61.941406 L 23.113281 69.117188 L 15.9375 69.117188 Z M 15.9375 61.941406 "/></g></g><g clip-rule="nonzero" clip-path="url(#94a8a86bc0)"><g clip-rule="nonzero" clip-path="url(#7216b93c6f)"><path style="fill:none;stroke-width:27.171568;stroke-linecap:butt;stroke-linejoin:miter;stroke:#a6a6a6;stroke-opacity:1;stroke-miterlimit:4;" d="M 16.348928 0.00773076 C 7.322325 0.00773076 0.00490116 7.325155 0.00490116 16.351758 C 0.00490116 25.378361 7.322325 32.695784 16.348928 32.695784 C 25.375531 32.695784 32.710759 25.378361 32.710759 16.351758 C 32.710759 7.325155 25.375531 0.00773076 16.348928 0.00773076 Z M 16.348928 0.00773076 " transform="matrix(0.219404,0,0,0.219404,15.936425,61.93971)"/></g></g><path style="fill:none;stroke-width:4;stroke-linecap:butt;stroke-linejoin:miter;stroke:#5271ff;stroke-opacity:1;stroke-miterlimit:4;" d="M -0.00356609 1.996705 L 24.348221 2.000205 " transform="matrix(-0.150602,0.155458,-0.155458,-0.150602,78.368461,31.949699)"/><path style="fill:none;stroke-width:4;stroke-linecap:butt;stroke-linejoin:miter;stroke:#004aad;stroke-opacity:1;stroke-miterlimit:4;" d="M 0.00146909 1.999689 L 18.220583 1.990312 " transform="matrix(-0.152306,0.154507,-0.154507,-0.152306,86.188096,23.972307)"/><path style="fill:none;stroke-width:4;stroke-linecap:butt;stroke-linejoin:miter;stroke:#004aad;stroke-opacity:1;stroke-miterlimit:4;" d="M -0.00638944 2.003158 L 55.221325 2.005083 " transform="matrix(0.18758,0.112242,-0.112242,0.18758,75.147912,12.667934)"/><path style="fill:none;stroke-width:4;stroke-linecap:butt;stroke-linejoin:miter;stroke:#004aad;stroke-opacity:1;stroke-miterlimit:4;" d="M -0.00901722 1.997712 L 58.033059 1.992734 " transform="matrix(0.215694,0.0395238,-0.0395238,0.215694,55.866058,7.827274)"/><path style="fill:none;stroke-width:4;stroke-linecap:butt;stroke-linejoin:miter;stroke:#004aad;stroke-opacity:1;stroke-miterlimit:4;" d="M -0.00901784 2.00637 L 70.954165 2.005601 " transform="matrix(0.210772,-0.0609338,0.0609338,0.210772,33.731207,12.510157)"/><path style="fill:none;stroke-width:4;stroke-linecap:butt;stroke-linejoin:miter;stroke:#5271ff;stroke-opacity:1;stroke-miterlimit:4;" d="M -0.00545246 1.99383 L 47.642754 2.000849 " transform="matrix(0.188737,0.111876,-0.111876,0.188737,59.98581,30.518832)"/><path style="fill:none;stroke-width:4;stroke-linecap:butt;stroke-linejoin:miter;stroke:#004aad;stroke-opacity:1;stroke-miterlimit:4;" d="M 0.00157482 1.99154 L 36.607119 1.994532 " transform="matrix(0.186969,0.114807,-0.114807,0.186969,47.001785,22.611838)"/><path style="fill:none;stroke-width:4;stroke-linecap:butt;stroke-linejoin:miter;stroke:#737373;stroke-opacity:1;stroke-miterlimit:4;" d="M 0.0030948 2.003189 L 21.934165 1.996241 " transform="matrix(-0.15402,-0.156256,0.156256,-0.15402,77.425748,78.996515)"/><path style="fill:none;stroke-width:4;stroke-linecap:butt;stroke-linejoin:miter;stroke:#737373;stroke-opacity:1;stroke-miterlimit:4;" d="M -0.00135509 1.997598 L 22.510399 2.00525 " transform="matrix(-0.147374,-0.162539,0.162539,-0.147374,85.659489,87.856674)"/><path style="fill:none;stroke-width:4;stroke-linecap:butt;stroke-linejoin:miter;stroke:#a6a6a6;stroke-opacity:1;stroke-miterlimit:4;" d="M -0.00304334 1.998179 L 45.554204 2.002181 " transform="matrix(0.193772,-0.10291,0.10291,0.193772,59.638708,78.690621)"/><path style="fill:none;stroke-width:4;stroke-linecap:butt;stroke-linejoin:miter;stroke:#737373;stroke-opacity:1;stroke-miterlimit:4;" d="M -0.00101826 1.99798 L 40.414128 1.993431 " transform="matrix(0.17544,-0.128046,0.128046,0.17544,46.353721,87.750907)"/><path style="fill:none;stroke-width:4;stroke-linecap:butt;stroke-linejoin:miter;stroke:#2b2b2b;stroke-opacity:1;stroke-miterlimit:4;" d="M -0.00167831 1.997433 L 66.347907 1.998585 " transform="matrix(0.166257,-0.141418,0.141418,0.166257,74.292025,101.644238)"/><path style="fill:none;stroke-width:4;stroke-linecap:butt;stroke-linejoin:miter;stroke:#2b2b2b;stroke-opacity:1;stroke-miterlimit:4;" d="M 0.00234953 1.996446 L 55.061047 2.006805 " transform="matrix(0.215316,-0.040835,0.040835,0.215316,56.363282,106.792884)"/><path style="fill:none;stroke-width:4;stroke-linecap:butt;stroke-linejoin:miter;stroke:#2b2b2b;stroke-opacity:1;stroke-miterlimit:4;" d="M 0.00317997 1.997677 L 80.489997 1.99274 " transform="matrix(0.197668,0.0921274,-0.0921274,0.197668,33.843568,98.518892)"/><path style="fill:none;stroke-width:4;stroke-linecap:butt;stroke-linejoin:miter;stroke:#5271ff;stroke-opacity:1;stroke-miterlimit:4;" d="M -0.00191784 1.992641 L 69.08731 1.993161 " transform="matrix(0.0861642,-0.201506,0.201506,0.0861642,35.938479,38.171669)"/><path style="fill:none;stroke-width:4;stroke-linecap:butt;stroke-linejoin:miter;stroke:#a6a6a6;stroke-opacity:1;stroke-miterlimit:4;" d="M 0.00758412 2.002502 L 71.462888 2.00644 " transform="matrix(0.083761,0.201279,-0.201279,0.083761,36.714927,72.264336)"/><path style="fill:none;stroke-width:4;stroke-linecap:butt;stroke-linejoin:miter;stroke:#5271ff;stroke-opacity:1;stroke-miterlimit:4;" d="M 0.00459107 2.001884 L 81.768398 1.999573 " transform="matrix(0.189908,-0.109877,0.109877,0.189908,37.81823,39.467987)"/><path style="fill:none;stroke-width:4;stroke-linecap:butt;stroke-linejoin:miter;stroke:#a6a6a6;stroke-opacity:1;stroke-miterlimit:4;" d="M -0.00758621 2.001799 L 79.685099 1.997271 " transform="matrix(0.193413,0.103583,-0.103583,0.193413,38.302569,70.426112)"/><path style="fill:none;stroke-width:4;stroke-linecap:butt;stroke-linejoin:miter;stroke:#38b6ff;stroke-opacity:1;stroke-miterlimit:4;" d="M -0.00920897 1.997909 L 34.006097 2.001981 " transform="matrix(0.10758,-0.191218,0.191218,0.10758,29.130673,51.060647)"/><path style="fill:none;stroke-width:4;stroke-linecap:butt;stroke-linejoin:miter;stroke:#38b6ff;stroke-opacity:1;stroke-miterlimit:4;" d="M -0.00561536 1.991223 L 41.885478 2.004295 " transform="matrix(0.0962,0.197189,-0.197189,0.0962,29.721312,57.438458)"/><path style="fill:none;stroke-width:4;stroke-linecap:butt;stroke-linejoin:miter;stroke:#004aad;stroke-opacity:1;stroke-miterlimit:4;" d="M 0.000278462 2.005267 L 51.659182 1.995807 " transform="matrix(0.178478,-0.127607,0.127607,0.178478,18.009688,22.251515)"/><path style="fill:none;stroke-width:4;stroke-linecap:butt;stroke-linejoin:miter;stroke:#2b2b2b;stroke-opacity:1;stroke-miterlimit:4;" d="M 0.00654549 2.002432 L 58.096187 1.99867 " transform="matrix(0.165548,0.143445,-0.143445,0.165548,18.344748,86.370687)"/><g clip-rule="nonzero" clip-path="url(#20b6066a0f)"><path style="fill:none;stroke-width:4;stroke-linecap:butt;stroke-linejoin:miter;stroke:#5271ff;stroke-opacity:1;stroke-miterlimit:4;" d="M -0.00188082 1.997373 L 110.610098 2.004991 " transform="matrix(0.0719575,-0.207268,0.207268,0.0719575,5.793175,50.867603)"/></g><g clip-rule="nonzero" clip-path="url(#ace6c22760)"><path style="fill:none;stroke-width:4;stroke-linecap:butt;stroke-linejoin:miter;stroke:#a6a6a6;stroke-opacity:1;stroke-miterlimit:4;" d="M 0.00364316 2.002693 L 111.631642 1.996307 " transform="matrix(0.0714448,0.207445,-0.207445,0.0714448,6.614408,57.656944)"/></g><path style="fill:none;stroke-width:4;stroke-linecap:butt;stroke-linejoin:miter;stroke:#5271ff;stroke-opacity:1;stroke-miterlimit:4;" d="M -0.0035682 2.007273 L 16.131489 2.000781 " transform="matrix(-0.145807,0.161662,-0.161662,-0.145807,61.773199,24.06669)"/><path style="fill:none;stroke-width:4;stroke-linecap:butt;stroke-linejoin:miter;stroke:#737373;stroke-opacity:1;stroke-miterlimit:4;" d="M 0.00235206 1.990831 L 21.398488 1.994905 " transform="matrix(0.130204,0.171589,-0.171589,0.130204,59.192861,83.35757)"/><path style="fill:none;stroke-width:4;stroke-linecap:butt;stroke-linejoin:miter;stroke:#38b6ff;stroke-opacity:1;stroke-miterlimit:4;" d="M 0.00290971 2.005649 L 30.350609 2.003334 " transform="matrix(-0.128987,0.174401,-0.174401,-0.128987,25.971256,57.551164)"/><path style="fill:none;stroke-width:4;stroke-linecap:butt;stroke-linejoin:miter;stroke:#38b6ff;stroke-opacity:1;stroke-miterlimit:4;" d="M 0.00782995 2.00305 L 23.139674 2.001357 " transform="matrix(-0.144709,-0.163138,0.163138,-0.144709,25.041547,52.009886)"/><path style="fill:none;stroke-width:4;stroke-linecap:butt;stroke-linejoin:miter;stroke:#5271ff;stroke-opacity:1;stroke-miterlimit:4;" d="M -0.00356235 1.993133 L 49.768137 2.007783 " transform="matrix(0.0985959,-0.196002,0.196002,0.0985959,20.840162,41.830131)"/><path style="fill:none;stroke-width:4;stroke-linecap:butt;stroke-linejoin:miter;stroke:#a6a6a6;stroke-opacity:1;stroke-miterlimit:4;" d="M 0.00742155 1.995648 L 46.183058 2.005596 " transform="matrix(0.10384,0.192263,-0.192263,0.10384,21.617294,68.478845)"/><path style="fill:none;stroke-width:4;stroke-linecap:butt;stroke-linejoin:miter;stroke:#38b6ff;stroke-opacity:1;stroke-miterlimit:4;" d="M 0.00471306 1.992569 L 45.820759 2.002258 " transform="matrix(0.185756,-0.116759,0.116759,0.185756,7.836786,52.122607)"/><path style="fill:none;stroke-width:4;stroke-linecap:butt;stroke-linejoin:miter;stroke:#38b6ff;stroke-opacity:1;stroke-miterlimit:4;" d="M 0.000593962 1.996307 L 50.563343 1.993509 " transform="matrix(0.174049,0.133584,-0.133584,0.174049,8.145478,56.242309)"/><path style="fill:none;stroke-width:4;stroke-linecap:butt;stroke-linejoin:miter;stroke:#5271ff;stroke-opacity:1;stroke-miterlimit:4;" d="M 0.00621008 1.997781 L 62.892636 1.991237 " transform="matrix(-0.0447011,-0.214802,0.214802,-0.0447011,18.45787,41.809387)"/><path style="fill:none;stroke-width:4;stroke-linecap:butt;stroke-linejoin:miter;stroke:#a6a6a6;stroke-opacity:1;stroke-miterlimit:4;" d="M 0.00560796 1.990442 L 55.150173 1.997543 " transform="matrix(-0.047433,0.213578,-0.213578,-0.047433,19.175381,69.128371)"/><path style="fill:none;stroke-width:4;stroke-linecap:butt;stroke-linejoin:miter;stroke:#004aad;stroke-opacity:1;stroke-miterlimit:4;" d="M 0.00487383 1.994388 L 37.3183 2.002139 " transform="matrix(0.0375383,-0.214303,0.214303,0.0375383,27.939601,25.453522)"/><path style="fill:none;stroke-width:4;stroke-linecap:butt;stroke-linejoin:miter;stroke:#004aad;stroke-opacity:1;stroke-miterlimit:4;" d="M 0.00888054 2.001325 L 36.202677 2.001046 " transform="matrix(0.192107,0.10361,-0.10361,0.192107,33.772058,15.247423)"/><path style="fill:none;stroke-width:4;stroke-linecap:butt;stroke-linejoin:miter;stroke:#2b2b2b;stroke-opacity:1;stroke-miterlimit:4;" d="M 0.00210081 2.010021 L 41.070854 2.002425 " transform="matrix(-0.10811,-0.190535,0.190535,-0.10811,69.68756,101.397392)"/><path style="fill:none;stroke-width:4;stroke-linecap:butt;stroke-linejoin:miter;stroke:#004aad;stroke-opacity:1;stroke-miterlimit:4;" d="M 0.0105072 2.000686 L 25.285863 1.992404 " transform="matrix(-0.136212,0.168876,-0.168876,-0.136212,69.929143,14.270743)"/><path style="fill:none;stroke-width:4;stroke-linecap:butt;stroke-linejoin:miter;stroke:#004aad;stroke-opacity:1;stroke-miterlimit:4;" d="M 0.00495627 2.008411 L 116.34133 1.995407 " transform="matrix(-0.21218,0.0532297,-0.0532297,-0.21218,85.022021,22.40635)"/><path style="fill:none;stroke-width:4;stroke-linecap:butt;stroke-linejoin:miter;stroke:#737373;stroke-opacity:1;stroke-miterlimit:4;" d="M -0.00449137 2.0079 L 118.162748 2.006582 " transform="matrix(0.209977,0.0626122,-0.0626122,0.209977,60.239943,81.367731)"/><path style="fill:none;stroke-width:4;stroke-linecap:butt;stroke-linejoin:miter;stroke:#5271ff;stroke-opacity:1;stroke-miterlimit:4;" d="M 0.0012802 1.998096 L 52.693075 1.997388 " transform="matrix(0.0935544,0.198458,-0.198458,0.0935544,65.77923,24.168284)"/><path style="fill:none;stroke-width:4;stroke-linecap:butt;stroke-linejoin:miter;stroke:#004aad;stroke-opacity:1;stroke-miterlimit:4;" d="M -0.00478692 2.006129 L 89.691517 2.006129 " transform="matrix(0,-0.219404,0.219404,0,71.403598,34.4677)"/><path style="fill:none;stroke-width:4;stroke-linecap:butt;stroke-linejoin:miter;stroke:#737373;stroke-opacity:1;stroke-miterlimit:4;" d="M -0.0111211 1.995375 L 55.017878 2.006038 " transform="matrix(0.0910355,-0.199557,0.199557,0.0910355,64.942665,86.773162)"/><path style="fill:none;stroke-width:4;stroke-linecap:butt;stroke-linejoin:miter;stroke:#737373;stroke-opacity:1;stroke-miterlimit:4;" d="M -0.0000990367 1.993773 L 111.304428 1.993773 " transform="matrix(0,-0.218818,0.218818,0,71.40357,100.714822)"/><path style="fill:none;stroke-width:4;stroke-linecap:butt;stroke-linejoin:miter;stroke:#737373;stroke-opacity:1;stroke-miterlimit:4;" d="M 0.00041921 2.007247 L 79.152788 2.007247 " transform="matrix(0.21897,0,0,0.21897,67.441314,89.783128)"/><path style="fill:none;stroke-width:4;stroke-linecap:butt;stroke-linejoin:miter;stroke:#004aad;stroke-opacity:1;stroke-miterlimit:4;" d="M -0.000524144 1.993628 L 79.151845 1.993628 " transform="matrix(-0.21897,0,0,-0.21897,84.808479,21.545921)"/><path style="fill:none;stroke-width:4;stroke-linecap:butt;stroke-linejoin:miter;stroke:#004aad;stroke-opacity:1;stroke-miterlimit:4;" d="M 0.00482279 2.001891 L 51.5932 1.991596 " transform="matrix(0.198064,0.0943861,-0.0943861,0.198064,67.281746,22.255387)"/><path style="fill:none;stroke-width:4;stroke-linecap:butt;stroke-linejoin:miter;stroke:#737373;stroke-opacity:1;stroke-miterlimit:4;" d="M -0.00813162 2.001778 L 52.514429 2.003518 " transform="matrix(0.192473,-0.105318,0.105318,0.192473,66.790741,88.113855)"/><path style="fill:none;stroke-width:4;stroke-linecap:butt;stroke-linejoin:miter;stroke:#2b2b2b;stroke-opacity:1;stroke-miterlimit:4;" d="M 0.00338805 2.008531 L 44.073729 2.008548 " transform="matrix(0.0344798,0.216362,-0.216362,0.0344798,28.75086,84.238607)"/><path style="fill:none;stroke-width:4;stroke-linecap:butt;stroke-linejoin:miter;stroke:#2b2b2b;stroke-opacity:1;stroke-miterlimit:4;" d="M -0.00483718 2.007258 L 36.197455 1.991785 " transform="matrix(0.192107,-0.10361,0.10361,0.192107,33.355456,95.309202)"/><path style="fill:none;stroke-width:4;stroke-linecap:butt;stroke-linejoin:miter;stroke:#38b6ff;stroke-opacity:1;stroke-miterlimit:4;" d="M 0.0034743 2.008618 L 70.845394 2.008618 " transform="matrix(0.219404,0,0,0.219404,8.620331,53.965552)"/><path style="fill:none;stroke-width:4;stroke-linecap:butt;stroke-linejoin:miter;stroke:#2b2b2b;stroke-opacity:1;stroke-miterlimit:4;" d="M 0.00394947 2.003008 L 92.119331 1.99086 " transform="matrix(0.0300521,-0.217073,0.217073,0.0300521,52.975239,104.2766)"/><path style="fill:none;stroke-width:4;stroke-linecap:butt;stroke-linejoin:miter;stroke:#004aad;stroke-opacity:1;stroke-miterlimit:4;" d="M 0.00437286 2.001847 L 67.115954 2.003378 " transform="matrix(0.0441827,0.214544,-0.214544,0.0441827,53.409759,11.039521)"/><path style="fill:none;stroke-width:4;stroke-linecap:butt;stroke-linejoin:miter;stroke:#004aad;stroke-opacity:1;stroke-miterlimit:4;" d="M -0.0106934 1.99886 L 40.065211 1.997435 " transform="matrix(-0.117167,0.185094,-0.185094,-0.117167,50.704661,10.880711)"/><path style="fill:none;stroke-width:4;stroke-linecap:butt;stroke-linejoin:miter;stroke:#2b2b2b;stroke-opacity:1;stroke-miterlimit:4;" d="M 0.00441222 2.004585 L 58.07901 2.002682 " transform="matrix(-0.101224,-0.194325,0.194325,-0.101224,50.868718,104.910801)"/><path style="fill:none;stroke-width:4;stroke-linecap:butt;stroke-linejoin:miter;stroke:#004aad;stroke-opacity:1;stroke-miterlimit:4;" d="M -0.000491205 1.999021 L 48.376148 2.001994 " transform="matrix(0.141882,0.165118,-0.165118,0.141882,54.927801,10.048487)"/><path style="fill:none;stroke-width:4;stroke-linecap:butt;stroke-linejoin:miter;stroke:#2b2b2b;stroke-opacity:1;stroke-miterlimit:4;" d="M -0.00302227 2.009334 L 61.988856 2.007309 " transform="matrix(-0.115445,0.186576,-0.186576,-0.115445,62.335481,93.505968)"/><path style="fill:none;stroke-width:4;stroke-linecap:butt;stroke-linejoin:miter;stroke:#004aad;stroke-opacity:1;stroke-miterlimit:4;" d="M -0.00746008 1.99461 L 59.075155 1.99461 " transform="matrix(0.219171,0,0,0.219171,47.302416,20.668307)"/><path style="fill:none;stroke-width:4;stroke-linecap:butt;stroke-linejoin:miter;stroke:#737373;stroke-opacity:1;stroke-miterlimit:4;" d="M -0.00746008 2.005407 L 59.075155 2.005407 " transform="matrix(0.219171,0,0,0.219171,47.302416,89.783128)"/><path style="fill:none;stroke-width:4;stroke-linecap:butt;stroke-linejoin:miter;stroke:#a6a6a6;stroke-opacity:1;stroke-miterlimit:4;" d="M -0.00117354 2.001944 L 29.630603 1.994812 " transform="matrix(0.115129,-0.18677,0.18677,0.115129,29.26295,77.47633)"/><path style="fill:none;stroke-width:4;stroke-linecap:butt;stroke-linejoin:miter;stroke:#5271ff;stroke-opacity:1;stroke-miterlimit:4;" d="M 0.00181132 2.009373 L 33.288488 2.0037 " transform="matrix(-0.107814,-0.188955,0.188955,-0.107814,32.768952,38.744325)"/><path style="fill:none;stroke-width:4;stroke-linecap:butt;stroke-linejoin:miter;stroke:#a6a6a6;stroke-opacity:1;stroke-miterlimit:4;" d="M 0.0044416 1.999867 L 39.374336 1.997191 " transform="matrix(0.21173,0.0493263,-0.0493263,0.21173,23.121143,65.916192)"/><path style="fill:none;stroke-width:4;stroke-linecap:butt;stroke-linejoin:miter;stroke:#5271ff;stroke-opacity:1;stroke-miterlimit:4;" d="M -0.00360015 1.992306 L 38.962907 2.000961 " transform="matrix(0.213614,-0.0500704,0.0500704,0.213614,23.014295,43.988298)"/><path style="fill:none;stroke-width:4;stroke-linecap:butt;stroke-linejoin:miter;stroke:#5271ff;stroke-opacity:1;stroke-miterlimit:4;" d="M 0.00781643 2.005354 L 99.109338 2.005354 " transform="matrix(0.219196,-0.000000000000000027,0.000000000000000027,0.219196,31.342037,28.626841)"/><path style="fill:none;stroke-width:4;stroke-linecap:butt;stroke-linejoin:miter;stroke:#a6a6a6;stroke-opacity:1;stroke-miterlimit:4;" d="M 0.00781643 1.998903 L 99.109338 1.998903 " transform="matrix(0.219196,0,0,0.219196,31.342037,80.323567)"/><path style="fill:none;stroke-width:4;stroke-linecap:butt;stroke-linejoin:miter;stroke:#a6a6a6;stroke-opacity:1;stroke-miterlimit:4;" d="M -0.000542955 2.00048 L 26.143899 1.997411 " transform="matrix(0.20963,-0.060636,0.060636,0.20963,18.671781,82.932169)"/><path style="fill:none;stroke-width:4;stroke-linecap:butt;stroke-linejoin:miter;stroke:#5271ff;stroke-opacity:1;stroke-miterlimit:4;" d="M -0.00691264 2.00721 L 27.240316 2.0023 " transform="matrix(0.205283,0.072292,-0.072292,0.205283,18.876993,25.475172)"/><path style="fill:none;stroke-width:4;stroke-linecap:butt;stroke-linejoin:miter;stroke:#38b6ff;stroke-opacity:1;stroke-miterlimit:4;" d="M -0.00564518 1.997886 L 59.780702 2.006048 " transform="matrix(-0.00101544,0.219401,-0.219401,-0.00101544,20.039895,48.827486)"/><g style="fill:#000000;fill-opacity:1;"><g transform="translate(119.021362, 60.928195)"><path style="stroke:none" d="M 18.265625 0.609375 C 13.617188 0.609375 9.859375 -0.617188 6.984375 -3.078125 C 4.117188 -5.546875 2.582031 -8.976562 2.375 -13.375 L 2.328125 -15.828125 L 2.375 -18.328125 C 2.539062 -22.722656 4.066406 -26.160156 6.953125 -28.640625 C 9.847656 -31.128906 13.617188 -32.375 18.265625 -32.375 C 21.804688 -32.375 24.78125 -31.742188 27.1875 -30.484375 C 29.59375 -29.222656 31.382812 -27.726562 32.5625 -26 C 33.738281 -24.269531 34.367188 -22.691406 34.453125 -21.265625 C 34.492188 -20.816406 34.351562 -20.4375 34.03125 -20.125 C 33.707031 -19.820312 33.320312 -19.671875 32.875 -19.671875 L 24.6875 -19.671875 C 24.238281 -19.671875 23.890625 -19.769531 23.640625 -19.96875 C 23.398438 -20.175781 23.175781 -20.503906 22.96875 -20.953125 C 22.519531 -22.097656 21.9375 -22.929688 21.21875 -23.453125 C 20.507812 -23.984375 19.609375 -24.25 18.515625 -24.25 C 15.378906 -24.25 13.75 -22.171875 13.625 -18.015625 L 13.5625 -15.703125 L 13.625 -13.6875 C 13.664062 -11.570312 14.09375 -10.015625 14.90625 -9.015625 C 15.71875 -8.015625 16.921875 -7.515625 18.515625 -7.515625 C 19.691406 -7.515625 20.613281 -7.769531 21.28125 -8.28125 C 21.957031 -8.789062 22.519531 -9.632812 22.96875 -10.8125 C 23.175781 -11.257812 23.398438 -11.582031 23.640625 -11.78125 C 23.890625 -11.988281 24.238281 -12.09375 24.6875 -12.09375 L 32.875 -12.09375 C 33.28125 -12.09375 33.644531 -11.945312 33.96875 -11.65625 C 34.289062 -11.375 34.453125 -11.03125 34.453125 -10.625 C 34.453125 -9.363281 33.890625 -7.847656 32.765625 -6.078125 C 31.648438 -4.304688 29.867188 -2.75 27.421875 -1.40625 C 24.984375 -0.0625 21.929688 0.609375 18.265625 0.609375 Z M 18.265625 0.609375 "/></g></g><g style="fill:#000000;fill-opacity:1;"><g transform="translate(155.248596, 60.928195)"><path style="stroke:none" d="M 18.75 0.609375 C 13.625 0.609375 9.6875 -0.578125 6.9375 -2.953125 C 4.1875 -5.335938 2.6875 -8.734375 2.4375 -13.140625 C 2.394531 -13.660156 2.375 -14.578125 2.375 -15.890625 C 2.375 -17.191406 2.394531 -18.109375 2.4375 -18.640625 C 2.6875 -22.953125 4.222656 -26.316406 7.046875 -28.734375 C 9.878906 -31.160156 13.78125 -32.375 18.75 -32.375 C 23.71875 -32.375 27.617188 -31.160156 30.453125 -28.734375 C 33.285156 -26.316406 34.820312 -22.953125 35.0625 -18.640625 C 35.144531 -17.578125 35.1875 -16.660156 35.1875 -15.890625 C 35.1875 -15.109375 35.144531 -14.191406 35.0625 -13.140625 C 34.820312 -8.734375 33.328125 -5.335938 30.578125 -2.953125 C 27.828125 -0.578125 23.882812 0.609375 18.75 0.609375 Z M 18.75 -7.09375 C 20.425781 -7.09375 21.671875 -7.609375 22.484375 -8.640625 C 23.296875 -9.679688 23.765625 -11.28125 23.890625 -13.4375 C 23.929688 -13.84375 23.953125 -14.660156 23.953125 -15.890625 C 23.953125 -17.109375 23.929688 -17.921875 23.890625 -18.328125 C 23.765625 -20.441406 23.296875 -22.03125 22.484375 -23.09375 C 21.671875 -24.15625 20.425781 -24.6875 18.75 -24.6875 C 17.082031 -24.6875 15.84375 -24.15625 15.03125 -23.09375 C 14.21875 -22.03125 13.75 -20.441406 13.625 -18.328125 L 13.5625 -15.890625 L 13.625 -13.4375 C 13.75 -11.28125 14.21875 -9.679688 15.03125 -8.640625 C 15.84375 -7.609375 17.082031 -7.09375 18.75 -7.09375 Z M 18.75 -7.09375 "/></g></g><g style="fill:#000000;fill-opacity:1;"><g transform="translate(192.758755, 60.928195)"><path style="stroke:none" d="M 5.015625 0 C 4.609375 0 4.25 -0.148438 3.9375 -0.453125 C 3.632812 -0.765625 3.484375 -1.125 3.484375 -1.53125 L 3.484375 -30.234375 C 3.484375 -30.679688 3.632812 -31.046875 3.9375 -31.328125 C 4.25 -31.617188 4.609375 -31.765625 5.015625 -31.765625 L 12.53125 -31.765625 C 12.976562 -31.765625 13.34375 -31.617188 13.625 -31.328125 C 13.90625 -31.046875 14.046875 -30.679688 14.046875 -30.234375 L 14.046875 -27.921875 C 15.148438 -29.265625 16.566406 -30.34375 18.296875 -31.15625 C 20.023438 -31.96875 22.007812 -32.375 24.25 -32.375 C 26.570312 -32.375 28.640625 -31.84375 30.453125 -30.78125 C 32.265625 -29.726562 33.691406 -28.160156 34.734375 -26.078125 C 35.773438 -24.003906 36.296875 -21.503906 36.296875 -18.578125 L 36.296875 -1.53125 C 36.296875 -1.125 36.148438 -0.765625 35.859375 -0.453125 C 35.578125 -0.148438 35.210938 0 34.765625 0 L 26.640625 0 C 26.191406 0 25.8125 -0.140625 25.5 -0.421875 C 25.195312 -0.710938 25.046875 -1.082031 25.046875 -1.53125 L 25.046875 -18.203125 C 25.046875 -20.035156 24.609375 -21.441406 23.734375 -22.421875 C 22.859375 -23.398438 21.585938 -23.890625 19.921875 -23.890625 C 18.285156 -23.890625 17 -23.390625 16.0625 -22.390625 C 15.125 -21.390625 14.65625 -19.992188 14.65625 -18.203125 L 14.65625 -1.53125 C 14.65625 -1.125 14.515625 -0.765625 14.234375 -0.453125 C 13.953125 -0.148438 13.585938 0 13.140625 0 Z M 5.015625 0 "/></g></g><g style="fill:#000000;fill-opacity:1;"><g transform="translate(232.223829, 60.928195)"><path style="stroke:none" d="M 5.015625 0 C 4.609375 0 4.25 -0.148438 3.9375 -0.453125 C 3.632812 -0.765625 3.484375 -1.125 3.484375 -1.53125 L 3.484375 -30.234375 C 3.484375 -30.679688 3.632812 -31.046875 3.9375 -31.328125 C 4.25 -31.617188 4.609375 -31.765625 5.015625 -31.765625 L 12.53125 -31.765625 C 12.976562 -31.765625 13.34375 -31.617188 13.625 -31.328125 C 13.90625 -31.046875 14.046875 -30.679688 14.046875 -30.234375 L 14.046875 -27.921875 C 15.148438 -29.265625 16.566406 -30.34375 18.296875 -31.15625 C 20.023438 -31.96875 22.007812 -32.375 24.25 -32.375 C 26.570312 -32.375 28.640625 -31.84375 30.453125 -30.78125 C 32.265625 -29.726562 33.691406 -28.160156 34.734375 -26.078125 C 35.773438 -24.003906 36.296875 -21.503906 36.296875 -18.578125 L 36.296875 -1.53125 C 36.296875 -1.125 36.148438 -0.765625 35.859375 -0.453125 C 35.578125 -0.148438 35.210938 0 34.765625 0 L 26.640625 0 C 26.191406 0 25.8125 -0.140625 25.5 -0.421875 C 25.195312 -0.710938 25.046875 -1.082031 25.046875 -1.53125 L 25.046875 -18.203125 C 25.046875 -20.035156 24.609375 -21.441406 23.734375 -22.421875 C 22.859375 -23.398438 21.585938 -23.890625 19.921875 -23.890625 C 18.285156 -23.890625 17 -23.390625 16.0625 -22.390625 C 15.125 -21.390625 14.65625 -19.992188 14.65625 -18.203125 L 14.65625 -1.53125 C 14.65625 -1.125 14.515625 -0.765625 14.234375 -0.453125 C 13.953125 -0.148438 13.585938 0 13.140625 0 Z M 5.015625 0 "/></g></g><g style="fill:#000000;fill-opacity:1;"><g transform="translate(271.688903, 60.928195)"><path style="stroke:none" d="M 18.390625 0.609375 C 13.421875 0.609375 9.507812 -0.722656 6.65625 -3.390625 C 3.800781 -6.054688 2.335938 -9.9375 2.265625 -15.03125 L 2.265625 -16.921875 C 2.421875 -21.765625 3.925781 -25.550781 6.78125 -28.28125 C 9.632812 -31.007812 13.484375 -32.375 18.328125 -32.375 C 21.828125 -32.375 24.789062 -31.671875 27.21875 -30.265625 C 29.644531 -28.867188 31.457031 -26.9375 32.65625 -24.46875 C 33.851562 -22 34.453125 -19.195312 34.453125 -16.0625 L 34.453125 -14.546875 C 34.453125 -14.097656 34.300781 -13.71875 34 -13.40625 C 33.695312 -13.101562 33.320312 -12.953125 32.875 -12.953125 L 13.5 -12.953125 L 13.5 -12.578125 C 13.539062 -10.753906 13.96875 -9.28125 14.78125 -8.15625 C 15.59375 -7.03125 16.753906 -6.46875 18.265625 -6.46875 C 19.242188 -6.46875 20.023438 -6.660156 20.609375 -7.046875 C 21.203125 -7.441406 21.765625 -7.941406 22.296875 -8.546875 C 22.660156 -8.960938 22.953125 -9.21875 23.171875 -9.3125 C 23.398438 -9.414062 23.757812 -9.46875 24.25 -9.46875 L 32.25 -9.46875 C 32.625 -9.46875 32.941406 -9.351562 33.203125 -9.125 C 33.472656 -8.90625 33.609375 -8.632812 33.609375 -8.3125 C 33.609375 -7.25 33.003906 -6.003906 31.796875 -4.578125 C 30.597656 -3.148438 28.847656 -1.925781 26.546875 -0.90625 C 24.242188 0.101562 21.523438 0.609375 18.390625 0.609375 Z M 23.21875 -19.1875 L 23.21875 -19.3125 C 23.21875 -21.257812 22.789062 -22.769531 21.9375 -23.84375 C 21.082031 -24.925781 19.878906 -25.46875 18.328125 -25.46875 C 16.773438 -25.46875 15.582031 -24.925781 14.75 -23.84375 C 13.914062 -22.769531 13.5 -21.257812 13.5 -19.3125 L 13.5 -19.1875 Z M 23.21875 -19.1875 "/></g></g><g style="fill:#000000;fill-opacity:1;"><g transform="translate(308.160501, 60.928195)"><path style="stroke:none" d="M 18.265625 0.609375 C 13.617188 0.609375 9.859375 -0.617188 6.984375 -3.078125 C 4.117188 -5.546875 2.582031 -8.976562 2.375 -13.375 L 2.328125 -15.828125 L 2.375 -18.328125 C 2.539062 -22.722656 4.066406 -26.160156 6.953125 -28.640625 C 9.847656 -31.128906 13.617188 -32.375 18.265625 -32.375 C 21.804688 -32.375 24.78125 -31.742188 27.1875 -30.484375 C 29.59375 -29.222656 31.382812 -27.726562 32.5625 -26 C 33.738281 -24.269531 34.367188 -22.691406 34.453125 -21.265625 C 34.492188 -20.816406 34.351562 -20.4375 34.03125 -20.125 C 33.707031 -19.820312 33.320312 -19.671875 32.875 -19.671875 L 24.6875 -19.671875 C 24.238281 -19.671875 23.890625 -19.769531 23.640625 -19.96875 C 23.398438 -20.175781 23.175781 -20.503906 22.96875 -20.953125 C 22.519531 -22.097656 21.9375 -22.929688 21.21875 -23.453125 C 20.507812 -23.984375 19.609375 -24.25 18.515625 -24.25 C 15.378906 -24.25 13.75 -22.171875 13.625 -18.015625 L 13.5625 -15.703125 L 13.625 -13.6875 C 13.664062 -11.570312 14.09375 -10.015625 14.90625 -9.015625 C 15.71875 -8.015625 16.921875 -7.515625 18.515625 -7.515625 C 19.691406 -7.515625 20.613281 -7.769531 21.28125 -8.28125 C 21.957031 -8.789062 22.519531 -9.632812 22.96875 -10.8125 C 23.175781 -11.257812 23.398438 -11.582031 23.640625 -11.78125 C 23.890625 -11.988281 24.238281 -12.09375 24.6875 -12.09375 L 32.875 -12.09375 C 33.28125 -12.09375 33.644531 -11.945312 33.96875 -11.65625 C 34.289062 -11.375 34.453125 -11.03125 34.453125 -10.625 C 34.453125 -9.363281 33.890625 -7.847656 32.765625 -6.078125 C 31.648438 -4.304688 29.867188 -2.75 27.421875 -1.40625 C 24.984375 -0.0625 21.929688 0.609375 18.265625 0.609375 Z M 18.265625 0.609375 "/></g></g><g style="fill:#000000;fill-opacity:1;"><g transform="translate(344.387735, 60.928195)"><path style="stroke:none" d="M 20.15625 0 C 11.519531 0 7.203125 -4.050781 7.203125 -12.15625 L 7.203125 -23.453125 L 2.375 -23.453125 C 1.96875 -23.453125 1.613281 -23.601562 1.3125 -23.90625 C 1.007812 -24.21875 0.859375 -24.578125 0.859375 -24.984375 L 0.859375 -30.234375 C 0.859375 -30.679688 1.007812 -31.046875 1.3125 -31.328125 C 1.613281 -31.617188 1.96875 -31.765625 2.375 -31.765625 L 7.203125 -31.765625 L 7.203125 -41.84375 C 7.203125 -42.289062 7.351562 -42.65625 7.65625 -42.9375 C 7.96875 -43.226562 8.328125 -43.375 8.734375 -43.375 L 16.25 -43.375 C 16.695312 -43.375 17.0625 -43.226562 17.34375 -42.9375 C 17.632812 -42.65625 17.78125 -42.289062 17.78125 -41.84375 L 17.78125 -31.765625 L 25.421875 -31.765625 C 25.867188 -31.765625 26.242188 -31.617188 26.546875 -31.328125 C 26.847656 -31.046875 27 -30.679688 27 -30.234375 L 27 -24.984375 C 27 -24.535156 26.847656 -24.164062 26.546875 -23.875 C 26.242188 -23.59375 25.867188 -23.453125 25.421875 -23.453125 L 17.78125 -23.453125 L 17.78125 -13.078125 C 17.78125 -11.648438 18.039062 -10.566406 18.5625 -9.828125 C 19.09375 -9.097656 19.953125 -8.734375 21.140625 -8.734375 L 25.96875 -8.734375 C 26.414062 -8.734375 26.78125 -8.578125 27.0625 -8.265625 C 27.351562 -7.960938 27.5 -7.585938 27.5 -7.140625 L 27.5 -1.53125 C 27.5 -1.125 27.351562 -0.765625 27.0625 -0.453125 C 26.78125 -0.148438 26.414062 0 25.96875 0 Z M 20.15625 0 "/></g></g><g style="fill:#000000;fill-opacity:1;"><g transform="translate(373.345074, 60.928195)"><path style="stroke:none" d="M 18.390625 0.609375 C 13.421875 0.609375 9.507812 -0.722656 6.65625 -3.390625 C 3.800781 -6.054688 2.335938 -9.9375 2.265625 -15.03125 L 2.265625 -16.921875 C 2.421875 -21.765625 3.925781 -25.550781 6.78125 -28.28125 C 9.632812 -31.007812 13.484375 -32.375 18.328125 -32.375 C 21.828125 -32.375 24.789062 -31.671875 27.21875 -30.265625 C 29.644531 -28.867188 31.457031 -26.9375 32.65625 -24.46875 C 33.851562 -22 34.453125 -19.195312 34.453125 -16.0625 L 34.453125 -14.546875 C 34.453125 -14.097656 34.300781 -13.71875 34 -13.40625 C 33.695312 -13.101562 33.320312 -12.953125 32.875 -12.953125 L 13.5 -12.953125 L 13.5 -12.578125 C 13.539062 -10.753906 13.96875 -9.28125 14.78125 -8.15625 C 15.59375 -7.03125 16.753906 -6.46875 18.265625 -6.46875 C 19.242188 -6.46875 20.023438 -6.660156 20.609375 -7.046875 C 21.203125 -7.441406 21.765625 -7.941406 22.296875 -8.546875 C 22.660156 -8.960938 22.953125 -9.21875 23.171875 -9.3125 C 23.398438 -9.414062 23.757812 -9.46875 24.25 -9.46875 L 32.25 -9.46875 C 32.625 -9.46875 32.941406 -9.351562 33.203125 -9.125 C 33.472656 -8.90625 33.609375 -8.632812 33.609375 -8.3125 C 33.609375 -7.25 33.003906 -6.003906 31.796875 -4.578125 C 30.597656 -3.148438 28.847656 -1.925781 26.546875 -0.90625 C 24.242188 0.101562 21.523438 0.609375 18.390625 0.609375 Z M 23.21875 -19.1875 L 23.21875 -19.3125 C 23.21875 -21.257812 22.789062 -22.769531 21.9375 -23.84375 C 21.082031 -24.925781 19.878906 -25.46875 18.328125 -25.46875 C 16.773438 -25.46875 15.582031 -24.925781 14.75 -23.84375 C 13.914062 -22.769531 13.5 -21.257812 13.5 -19.3125 L 13.5 -19.1875 Z M 23.21875 -19.1875 "/></g></g><g style="fill:#000000;fill-opacity:1;"><g transform="translate(409.816672, 60.928195)"><path style="stroke:none" d="M 15.390625 0.609375 C 11.441406 0.609375 8.335938 -0.628906 6.078125 -3.109375 C 3.816406 -5.597656 2.601562 -9.144531 2.4375 -13.75 L 2.375 -15.890625 L 2.4375 -18.078125 C 2.601562 -22.523438 3.828125 -26.019531 6.109375 -28.5625 C 8.390625 -31.101562 11.484375 -32.375 15.390625 -32.375 C 19.054688 -32.375 22.007812 -31.195312 24.25 -28.84375 L 24.25 -41.84375 C 24.25 -42.289062 24.398438 -42.65625 24.703125 -42.9375 C 25.015625 -43.226562 25.375 -43.375 25.78125 -43.375 L 33.65625 -43.375 C 34.101562 -43.375 34.476562 -43.226562 34.78125 -42.9375 C 35.09375 -42.65625 35.25 -42.289062 35.25 -41.84375 L 35.25 -1.53125 C 35.25 -1.082031 35.09375 -0.710938 34.78125 -0.421875 C 34.476562 -0.140625 34.101562 0 33.65625 0 L 26.390625 0 C 25.984375 0 25.625 -0.148438 25.3125 -0.453125 C 25.007812 -0.765625 24.859375 -1.125 24.859375 -1.53125 L 24.859375 -3.421875 C 22.660156 -0.734375 19.503906 0.609375 15.390625 0.609375 Z M 18.9375 -7.875 C 20.6875 -7.875 21.988281 -8.429688 22.84375 -9.546875 C 23.695312 -10.671875 24.164062 -12.09375 24.25 -13.8125 C 24.332031 -14.945312 24.375 -15.71875 24.375 -16.125 C 24.375 -16.570312 24.332031 -17.328125 24.25 -18.390625 C 24.164062 -19.972656 23.6875 -21.285156 22.8125 -22.328125 C 21.9375 -23.367188 20.644531 -23.890625 18.9375 -23.890625 C 17.101562 -23.890625 15.789062 -23.347656 15 -22.265625 C 14.207031 -21.191406 13.75 -19.695312 13.625 -17.78125 L 13.5625 -15.890625 L 13.625 -13.984375 C 13.75 -12.078125 14.207031 -10.582031 15 -9.5 C 15.789062 -8.414062 17.101562 -7.875 18.9375 -7.875 Z M 18.9375 -7.875 "/></g></g><g style="fill:#000000;fill-opacity:1;"><g transform="translate(121.214561, 101.618532)"><path style="stroke:none" d="M 11.5 0.40625 C 9.582031 0.40625 7.925781 0.0351562 6.53125 -0.703125 C 5.144531 -1.453125 4.070312 -2.519531 3.3125 -3.90625 C 2.5625 -5.289062 2.160156 -6.957031 2.109375 -8.90625 C 2.078125 -9.3125 2.0625 -9.847656 2.0625 -10.515625 C 2.0625 -11.191406 2.078125 -11.734375 2.109375 -12.140625 C 2.160156 -14.078125 2.5625 -15.738281 3.3125 -17.125 C 4.070312 -18.519531 5.144531 -19.585938 6.53125 -20.328125 C 7.925781 -21.078125 9.582031 -21.453125 11.5 -21.453125 C 13.0625 -21.453125 14.398438 -21.234375 15.515625 -20.796875 C 16.640625 -20.367188 17.566406 -19.816406 18.296875 -19.140625 C 19.023438 -18.460938 19.570312 -17.734375 19.9375 -16.953125 C 20.300781 -16.171875 20.492188 -15.429688 20.515625 -14.734375 C 20.546875 -14.460938 20.460938 -14.242188 20.265625 -14.078125 C 20.078125 -13.921875 19.851562 -13.84375 19.59375 -13.84375 L 17.640625 -13.84375 C 17.367188 -13.84375 17.164062 -13.898438 17.03125 -14.015625 C 16.894531 -14.140625 16.757812 -14.351562 16.625 -14.65625 C 16.144531 -15.96875 15.484375 -16.894531 14.640625 -17.4375 C 13.804688 -17.976562 12.769531 -18.25 11.53125 -18.25 C 9.914062 -18.25 8.597656 -17.75 7.578125 -16.75 C 6.566406 -15.75 6.023438 -14.144531 5.953125 -11.9375 C 5.921875 -10.96875 5.921875 -10.023438 5.953125 -9.109375 C 6.023438 -6.867188 6.566406 -5.253906 7.578125 -4.265625 C 8.597656 -3.285156 9.914062 -2.796875 11.53125 -2.796875 C 12.769531 -2.796875 13.804688 -3.0625 14.640625 -3.59375 C 15.484375 -4.132812 16.144531 -5.066406 16.625 -6.390625 C 16.757812 -6.691406 16.894531 -6.910156 17.03125 -7.046875 C 17.164062 -7.179688 17.367188 -7.25 17.640625 -7.25 L 19.59375 -7.25 C 19.851562 -7.25 20.078125 -7.160156 20.265625 -6.984375 C 20.460938 -6.804688 20.546875 -6.582031 20.515625 -6.3125 C 20.492188 -5.75 20.375 -5.171875 20.15625 -4.578125 C 19.9375 -3.984375 19.585938 -3.378906 19.109375 -2.765625 C 18.640625 -2.160156 18.054688 -1.617188 17.359375 -1.140625 C 16.660156 -0.671875 15.820312 -0.296875 14.84375 -0.015625 C 13.875 0.265625 12.757812 0.40625 11.5 0.40625 Z M 11.5 0.40625 "/></g></g><g style="fill:#000000;fill-opacity:1;"><g transform="translate(143.551559, 101.618532)"><path style="stroke:none" d="M 11.609375 0.40625 C 9.554688 0.40625 7.84375 0.015625 6.46875 -0.765625 C 5.09375 -1.546875 4.039062 -2.628906 3.3125 -4.015625 C 2.582031 -5.410156 2.179688 -7 2.109375 -8.78125 C 2.078125 -9.238281 2.0625 -9.820312 2.0625 -10.53125 C 2.0625 -11.25 2.078125 -11.828125 2.109375 -12.265625 C 2.179688 -14.066406 2.585938 -15.65625 3.328125 -17.03125 C 4.078125 -18.40625 5.140625 -19.484375 6.515625 -20.265625 C 7.890625 -21.054688 9.585938 -21.453125 11.609375 -21.453125 C 13.640625 -21.453125 15.34375 -21.054688 16.71875 -20.265625 C 18.09375 -19.484375 19.148438 -18.40625 19.890625 -17.03125 C 20.628906 -15.65625 21.039062 -14.066406 21.125 -12.265625 C 21.15625 -11.828125 21.171875 -11.25 21.171875 -10.53125 C 21.171875 -9.820312 21.15625 -9.238281 21.125 -8.78125 C 21.039062 -7 20.632812 -5.410156 19.90625 -4.015625 C 19.175781 -2.628906 18.125 -1.546875 16.75 -0.765625 C 15.375 0.015625 13.660156 0.40625 11.609375 0.40625 Z M 11.609375 -2.71875 C 13.285156 -2.71875 14.625 -3.25 15.625 -4.3125 C 16.625 -5.375 17.160156 -6.929688 17.234375 -8.984375 C 17.265625 -9.390625 17.28125 -9.898438 17.28125 -10.515625 C 17.28125 -11.140625 17.265625 -11.65625 17.234375 -12.0625 C 17.160156 -14.113281 16.625 -15.671875 15.625 -16.734375 C 14.625 -17.796875 13.285156 -18.328125 11.609375 -18.328125 C 9.941406 -18.328125 8.597656 -17.796875 7.578125 -16.734375 C 6.566406 -15.671875 6.035156 -14.113281 5.984375 -12.0625 C 5.960938 -11.65625 5.953125 -11.140625 5.953125 -10.515625 C 5.953125 -9.898438 5.960938 -9.390625 5.984375 -8.984375 C 6.035156 -6.929688 6.566406 -5.375 7.578125 -4.3125 C 8.597656 -3.25 9.941406 -2.71875 11.609375 -2.71875 Z M 11.609375 -2.71875 "/></g></g><g style="fill:#000000;fill-opacity:1;"><g transform="translate(166.778811, 101.618532)"><path style="stroke:none" d="M 3.921875 0 C 3.648438 0 3.425781 -0.0859375 3.25 -0.265625 C 3.082031 -0.441406 3 -0.664062 3 -0.9375 L 3 -20.109375 C 3 -20.378906 3.082031 -20.601562 3.25 -20.78125 C 3.425781 -20.957031 3.648438 -21.046875 3.921875 -21.046875 L 5.75 -21.046875 C 6.019531 -21.046875 6.238281 -20.957031 6.40625 -20.78125 C 6.582031 -20.601562 6.671875 -20.378906 6.671875 -20.109375 L 6.671875 -18.703125 C 7.296875 -19.535156 8.078125 -20.203125 9.015625 -20.703125 C 9.960938 -21.203125 11.097656 -21.453125 12.421875 -21.453125 C 15.472656 -21.472656 17.632812 -20.226562 18.90625 -17.71875 C 19.519531 -18.851562 20.421875 -19.757812 21.609375 -20.4375 C 22.796875 -21.113281 24.144531 -21.453125 25.65625 -21.453125 C 27.0625 -21.453125 28.335938 -21.125 29.484375 -20.46875 C 30.628906 -19.820312 31.53125 -18.84375 32.1875 -17.53125 C 32.851562 -16.226562 33.1875 -14.59375 33.1875 -12.625 L 33.1875 -0.9375 C 33.1875 -0.664062 33.097656 -0.441406 32.921875 -0.265625 C 32.742188 -0.0859375 32.519531 0 32.25 0 L 30.34375 0 C 30.082031 0 29.863281 -0.0859375 29.6875 -0.265625 C 29.507812 -0.441406 29.421875 -0.664062 29.421875 -0.9375 L 29.421875 -12.265625 C 29.421875 -13.773438 29.203125 -14.960938 28.765625 -15.828125 C 28.335938 -16.691406 27.757812 -17.296875 27.03125 -17.640625 C 26.300781 -17.992188 25.503906 -18.171875 24.640625 -18.171875 C 23.941406 -18.171875 23.226562 -17.992188 22.5 -17.640625 C 21.769531 -17.296875 21.164062 -16.691406 20.6875 -15.828125 C 20.21875 -14.960938 19.984375 -13.773438 19.984375 -12.265625 L 19.984375 -0.9375 C 19.984375 -0.664062 19.894531 -0.441406 19.71875 -0.265625 C 19.550781 -0.0859375 19.332031 0 19.0625 0 L 17.15625 0 C 16.882812 0 16.660156 -0.0859375 16.484375 -0.265625 C 16.316406 -0.441406 16.234375 -0.664062 16.234375 -0.9375 L 16.234375 -12.265625 C 16.234375 -13.773438 16.003906 -14.960938 15.546875 -15.828125 C 15.085938 -16.691406 14.492188 -17.296875 13.765625 -17.640625 C 13.035156 -17.992188 12.265625 -18.171875 11.453125 -18.171875 C 10.753906 -18.171875 10.039062 -17.992188 9.3125 -17.640625 C 8.582031 -17.296875 7.976562 -16.691406 7.5 -15.828125 C 7.03125 -14.960938 6.796875 -13.785156 6.796875 -12.296875 L 6.796875 -0.9375 C 6.796875 -0.664062 6.707031 -0.441406 6.53125 -0.265625 C 6.351562 -0.0859375 6.132812 0 5.875 0 Z M 3.921875 0 "/></g></g><g style="fill:#000000;fill-opacity:1;"><g transform="translate(202.752719, 101.618532)"><path style="stroke:none" d="M 3.921875 0 C 3.648438 0 3.425781 -0.0859375 3.25 -0.265625 C 3.082031 -0.441406 3 -0.664062 3 -0.9375 L 3 -20.109375 C 3 -20.378906 3.082031 -20.601562 3.25 -20.78125 C 3.425781 -20.957031 3.648438 -21.046875 3.921875 -21.046875 L 5.75 -21.046875 C 6.019531 -21.046875 6.238281 -20.957031 6.40625 -20.78125 C 6.582031 -20.601562 6.671875 -20.378906 6.671875 -20.109375 L 6.671875 -18.703125 C 7.296875 -19.535156 8.078125 -20.203125 9.015625 -20.703125 C 9.960938 -21.203125 11.097656 -21.453125 12.421875 -21.453125 C 15.472656 -21.472656 17.632812 -20.226562 18.90625 -17.71875 C 19.519531 -18.851562 20.421875 -19.757812 21.609375 -20.4375 C 22.796875 -21.113281 24.144531 -21.453125 25.65625 -21.453125 C 27.0625 -21.453125 28.335938 -21.125 29.484375 -20.46875 C 30.628906 -19.820312 31.53125 -18.84375 32.1875 -17.53125 C 32.851562 -16.226562 33.1875 -14.59375 33.1875 -12.625 L 33.1875 -0.9375 C 33.1875 -0.664062 33.097656 -0.441406 32.921875 -0.265625 C 32.742188 -0.0859375 32.519531 0 32.25 0 L 30.34375 0 C 30.082031 0 29.863281 -0.0859375 29.6875 -0.265625 C 29.507812 -0.441406 29.421875 -0.664062 29.421875 -0.9375 L 29.421875 -12.265625 C 29.421875 -13.773438 29.203125 -14.960938 28.765625 -15.828125 C 28.335938 -16.691406 27.757812 -17.296875 27.03125 -17.640625 C 26.300781 -17.992188 25.503906 -18.171875 24.640625 -18.171875 C 23.941406 -18.171875 23.226562 -17.992188 22.5 -17.640625 C 21.769531 -17.296875 21.164062 -16.691406 20.6875 -15.828125 C 20.21875 -14.960938 19.984375 -13.773438 19.984375 -12.265625 L 19.984375 -0.9375 C 19.984375 -0.664062 19.894531 -0.441406 19.71875 -0.265625 C 19.550781 -0.0859375 19.332031 0 19.0625 0 L 17.15625 0 C 16.882812 0 16.660156 -0.0859375 16.484375 -0.265625 C 16.316406 -0.441406 16.234375 -0.664062 16.234375 -0.9375 L 16.234375 -12.265625 C 16.234375 -13.773438 16.003906 -14.960938 15.546875 -15.828125 C 15.085938 -16.691406 14.492188 -17.296875 13.765625 -17.640625 C 13.035156 -17.992188 12.265625 -18.171875 11.453125 -18.171875 C 10.753906 -18.171875 10.039062 -17.992188 9.3125 -17.640625 C 8.582031 -17.296875 7.976562 -16.691406 7.5 -15.828125 C 7.03125 -14.960938 6.796875 -13.785156 6.796875 -12.296875 L 6.796875 -0.9375 C 6.796875 -0.664062 6.707031 -0.441406 6.53125 -0.265625 C 6.351562 -0.0859375 6.132812 0 5.875 0 Z M 3.921875 0 "/></g></g><g style="fill:#000000;fill-opacity:1;"><g transform="translate(238.726627, 101.618532)"><path style="stroke:none" d="M 10.84375 0.40625 C 9.113281 0.40625 7.648438 0.0195312 6.453125 -0.75 C 5.253906 -1.519531 4.34375 -2.59375 3.71875 -3.96875 C 3.101562 -5.34375 2.796875 -6.921875 2.796875 -8.703125 L 2.796875 -20.109375 C 2.796875 -20.378906 2.878906 -20.601562 3.046875 -20.78125 C 3.222656 -20.957031 3.445312 -21.046875 3.71875 -21.046875 L 5.75 -21.046875 C 6.019531 -21.046875 6.238281 -20.957031 6.40625 -20.78125 C 6.582031 -20.601562 6.671875 -20.378906 6.671875 -20.109375 L 6.671875 -8.90625 C 6.671875 -4.882812 8.425781 -2.875 11.9375 -2.875 C 13.613281 -2.875 14.957031 -3.40625 15.96875 -4.46875 C 16.976562 -5.53125 17.484375 -7.007812 17.484375 -8.90625 L 17.484375 -20.109375 C 17.484375 -20.378906 17.570312 -20.601562 17.75 -20.78125 C 17.925781 -20.957031 18.144531 -21.046875 18.40625 -21.046875 L 20.4375 -21.046875 C 20.707031 -21.046875 20.921875 -20.957031 21.078125 -20.78125 C 21.242188 -20.601562 21.328125 -20.378906 21.328125 -20.109375 L 21.328125 -0.9375 C 21.328125 -0.664062 21.242188 -0.441406 21.078125 -0.265625 C 20.921875 -0.0859375 20.707031 0 20.4375 0 L 18.53125 0 C 18.257812 0 18.035156 -0.0859375 17.859375 -0.265625 C 17.691406 -0.441406 17.609375 -0.664062 17.609375 -0.9375 L 17.609375 -2.71875 C 16.878906 -1.769531 15.992188 -1.007812 14.953125 -0.4375 C 13.910156 0.125 12.539062 0.40625 10.84375 0.40625 Z M 10.84375 0.40625 "/></g></g><g style="fill:#000000;fill-opacity:1;"><g transform="translate(263.086908, 101.618532)"><path style="stroke:none" d="M 3.921875 0 C 3.648438 0 3.425781 -0.0859375 3.25 -0.265625 C 3.082031 -0.441406 3 -0.664062 3 -0.9375 L 3 -20.109375 C 3 -20.378906 3.082031 -20.601562 3.25 -20.78125 C 3.425781 -20.957031 3.648438 -21.046875 3.921875 -21.046875 L 5.828125 -21.046875 C 6.097656 -21.046875 6.320312 -20.957031 6.5 -20.78125 C 6.675781 -20.601562 6.765625 -20.378906 6.765625 -20.109375 L 6.765625 -18.328125 C 7.460938 -19.242188 8.34375 -19.992188 9.40625 -20.578125 C 10.46875 -21.160156 11.835938 -21.453125 13.515625 -21.453125 C 15.265625 -21.453125 16.753906 -21.066406 17.984375 -20.296875 C 19.210938 -19.523438 20.144531 -18.457031 20.78125 -17.09375 C 21.414062 -15.726562 21.734375 -14.144531 21.734375 -12.34375 L 21.734375 -0.9375 C 21.734375 -0.664062 21.644531 -0.441406 21.46875 -0.265625 C 21.289062 -0.0859375 21.066406 0 20.796875 0 L 18.78125 0 C 18.507812 0 18.285156 -0.0859375 18.109375 -0.265625 C 17.929688 -0.441406 17.84375 -0.664062 17.84375 -0.9375 L 17.84375 -12.140625 C 17.84375 -14.023438 17.382812 -15.5 16.46875 -16.5625 C 15.550781 -17.632812 14.203125 -18.171875 12.421875 -18.171875 C 10.753906 -18.171875 9.410156 -17.632812 8.390625 -16.5625 C 7.378906 -15.5 6.875 -14.023438 6.875 -12.140625 L 6.875 -0.9375 C 6.875 -0.664062 6.785156 -0.441406 6.609375 -0.265625 C 6.441406 -0.0859375 6.222656 0 5.953125 0 Z M 3.921875 0 "/></g></g><g style="fill:#000000;fill-opacity:1;"><g transform="translate(287.609059, 101.618532)"><path style="stroke:none" d="M 3.921875 0 C 3.648438 0 3.425781 -0.0859375 3.25 -0.265625 C 3.082031 -0.441406 3 -0.664062 3 -0.9375 L 3 -20.109375 C 3 -20.378906 3.082031 -20.601562 3.25 -20.78125 C 3.425781 -20.957031 3.648438 -21.046875 3.921875 -21.046875 L 5.875 -21.046875 C 6.132812 -21.046875 6.351562 -20.957031 6.53125 -20.78125 C 6.707031 -20.601562 6.796875 -20.378906 6.796875 -20.109375 L 6.796875 -0.9375 C 6.796875 -0.664062 6.707031 -0.441406 6.53125 -0.265625 C 6.351562 -0.0859375 6.132812 0 5.875 0 Z M 3.609375 -24.96875 C 3.335938 -24.96875 3.113281 -25.054688 2.9375 -25.234375 C 2.757812 -25.410156 2.671875 -25.632812 2.671875 -25.90625 L 2.671875 -28.078125 C 2.671875 -28.347656 2.757812 -28.578125 2.9375 -28.765625 C 3.113281 -28.960938 3.335938 -29.0625 3.609375 -29.0625 L 6.15625 -29.0625 C 6.425781 -29.0625 6.65625 -28.960938 6.84375 -28.765625 C 7.03125 -28.578125 7.125 -28.347656 7.125 -28.078125 L 7.125 -25.90625 C 7.125 -25.632812 7.03125 -25.410156 6.84375 -25.234375 C 6.65625 -25.054688 6.425781 -24.96875 6.15625 -24.96875 Z M 3.609375 -24.96875 "/></g></g><g style="fill:#000000;fill-opacity:1;"><g transform="translate(297.401735, 101.618532)"><path style="stroke:none" d="M 11.203125 0 C 9.691406 0 8.460938 -0.285156 7.515625 -0.859375 C 6.578125 -1.441406 5.890625 -2.265625 5.453125 -3.328125 C 5.023438 -4.398438 4.8125 -5.664062 4.8125 -7.125 L 4.8125 -17.8125 L 1.65625 -17.8125 C 1.382812 -17.8125 1.160156 -17.894531 0.984375 -18.0625 C 0.816406 -18.238281 0.734375 -18.460938 0.734375 -18.734375 L 0.734375 -20.109375 C 0.734375 -20.378906 0.816406 -20.601562 0.984375 -20.78125 C 1.160156 -20.957031 1.382812 -21.046875 1.65625 -21.046875 L 4.8125 -21.046875 L 4.8125 -27.796875 C 4.8125 -28.066406 4.898438 -28.289062 5.078125 -28.46875 C 5.253906 -28.644531 5.476562 -28.734375 5.75 -28.734375 L 7.65625 -28.734375 C 7.914062 -28.734375 8.132812 -28.644531 8.3125 -28.46875 C 8.488281 -28.289062 8.578125 -28.066406 8.578125 -27.796875 L 8.578125 -21.046875 L 13.59375 -21.046875 C 13.894531 -21.046875 14.125 -20.957031 14.28125 -20.78125 C 14.445312 -20.601562 14.53125 -20.378906 14.53125 -20.109375 L 14.53125 -18.734375 C 14.53125 -18.460938 14.445312 -18.238281 14.28125 -18.0625 C 14.125 -17.894531 13.894531 -17.8125 13.59375 -17.8125 L 8.578125 -17.8125 L 8.578125 -7.40625 C 8.578125 -6.132812 8.789062 -5.132812 9.21875 -4.40625 C 9.65625 -3.675781 10.425781 -3.3125 11.53125 -3.3125 L 14 -3.3125 C 14.269531 -3.3125 14.492188 -3.222656 14.671875 -3.046875 C 14.847656 -2.878906 14.9375 -2.660156 14.9375 -2.390625 L 14.9375 -0.9375 C 14.9375 -0.664062 14.847656 -0.441406 14.671875 -0.265625 C 14.492188 -0.0859375 14.269531 0 14 0 Z M 11.203125 0 "/></g></g><g style="fill:#000000;fill-opacity:1;"><g transform="translate(313.223777, 101.618532)"><path style="stroke:none" d="M 6.671875 7.6875 C 6.460938 7.6875 6.273438 7.601562 6.109375 7.4375 C 5.953125 7.28125 5.875 7.09375 5.875 6.875 C 5.875 6.769531 5.882812 6.660156 5.90625 6.546875 C 5.9375 6.441406 5.988281 6.3125 6.0625 6.15625 L 9.1875 -1.25 L 1.453125 -19.5 C 1.316406 -19.820312 1.25 -20.050781 1.25 -20.1875 C 1.25 -20.4375 1.328125 -20.640625 1.484375 -20.796875 C 1.648438 -20.960938 1.859375 -21.046875 2.109375 -21.046875 L 4.09375 -21.046875 C 4.382812 -21.046875 4.597656 -20.976562 4.734375 -20.84375 C 4.867188 -20.707031 4.976562 -20.546875 5.0625 -20.359375 L 11.203125 -5.625 L 17.515625 -20.359375 C 17.597656 -20.546875 17.710938 -20.707031 17.859375 -20.84375 C 18.015625 -20.976562 18.238281 -21.046875 18.53125 -21.046875 L 20.4375 -21.046875 C 20.675781 -21.046875 20.875 -20.960938 21.03125 -20.796875 C 21.195312 -20.640625 21.28125 -20.453125 21.28125 -20.234375 C 21.28125 -20.097656 21.210938 -19.851562 21.078125 -19.5 L 9.59375 7 C 9.507812 7.1875 9.394531 7.347656 9.25 7.484375 C 9.101562 7.617188 8.878906 7.6875 8.578125 7.6875 Z M 6.671875 7.6875 "/></g></g></g></svg>